<?xml version="1.0" encoding="UTF-8" standalone="no"?>
<!-- Created with Inkscape (http://www.inkscape.org/) -->

<svg
   xmlns:dc="http://purl.org/dc/elements/1.1/"
   xmlns:cc="http://creativecommons.org/ns#"
   xmlns:rdf="http://www.w3.org/1999/02/22-rdf-syntax-ns#"
   xmlns:svg="http://www.w3.org/2000/svg"
   xmlns="http://www.w3.org/2000/svg"
   xmlns:xlink="http://www.w3.org/1999/xlink"
   xmlns:sodipodi="http://sodipodi.sourceforge.net/DTD/sodipodi-0.dtd"
   xmlns:inkscape="http://www.inkscape.org/namespaces/inkscape"
   width="256"
   height="256"
   viewBox="0 0 67.733333 67.733337"
   version="1.1"
   id="svg1062"
   inkscape:version="0.92.2 (5c3e80d, 2017-08-06)"
   sodipodi:docname="favicon.svg"
   inkscape:export-filename="H:\WebTest\Pisces_Softwares\images\favicon.png"
   inkscape:export-xdpi="96"
   inkscape:export-ydpi="96">
  <defs
     id="defs1056">
    <linearGradient
       inkscape:collect="always"
       id="linearGradient1059">
      <stop
         style="stop-color:#f0ff04;stop-opacity:1"
         offset="0"
         id="stop1055" />
      <stop
         style="stop-color:#ffffff;stop-opacity:0"
         offset="1"
         id="stop1057" />
    </linearGradient>
    <linearGradient
       inkscape:collect="always"
       id="linearGradient1012">
      <stop
         style="stop-color:#00eadc;stop-opacity:1"
         offset="0"
         id="stop1008" />
      <stop
         style="stop-color:#ffffff;stop-opacity:0.27564103"
         offset="1"
         id="stop1010" />
    </linearGradient>
    <linearGradient
       inkscape:collect="always"
       id="linearGradient1000">
      <stop
         style="stop-color:#001ce3;stop-opacity:1"
         offset="0"
         id="stop996" />
      <stop
         style="stop-color:#00fced;stop-opacity:1"
         offset="1"
         id="stop998" />
    </linearGradient>
    <linearGradient
       inkscape:collect="always"
       id="linearGradient1006">
      <stop
         style="stop-color:#008189;stop-opacity:1"
         offset="0"
         id="stop1002" />
      <stop
         style="stop-color:#8afff1;stop-opacity:1"
         offset="1"
         id="stop1004" />
    </linearGradient>
    <pattern
       y="0"
       x="0"
       height="6"
       width="6"
       patternUnits="userSpaceOnUse"
       id="EMFhbasepattern" />
    <linearGradient
       inkscape:collect="always"
       xlink:href="#linearGradient1019"
       id="linearGradient987"
       gradientUnits="userSpaceOnUse"
       gradientTransform="matrix(1.2358461,0,0,1.2358461,-355.81694,164.69553)"
       x1="336.94989"
       y1="45.513065"
       x2="353.71445"
       y2="-26.231188" />
    <linearGradient
       id="linearGradient1019"
       inkscape:collect="always">
      <stop
         id="stop1015"
         offset="0"
         style="stop-color:#a50000;stop-opacity:1" />
      <stop
         id="stop1017"
         offset="1"
         style="stop-color:#ff4343;stop-opacity:1" />
    </linearGradient>
    <filter
       inkscape:collect="always"
       style="color-interpolation-filters:sRGB"
       id="filter1041-7"
       x="-0.22611769"
       width="1.4522353"
       y="-0.44559488"
       height="1.8911898">
      <feGaussianBlur
         inkscape:collect="always"
         stdDeviation="22.624097"
         id="feGaussianBlur1043-2" />
    </filter>
    <linearGradient
       inkscape:collect="always"
       xlink:href="#linearGradient1013"
       id="linearGradient986"
       gradientUnits="userSpaceOnUse"
       gradientTransform="matrix(1.2358461,0,0,1.2358461,-355.81694,164.69553)"
       x1="408.53287"
       y1="64.478027"
       x2="302.51056"
       y2="-8.8338108" />
    <linearGradient
       id="linearGradient1013"
       inkscape:collect="always">
      <stop
         id="stop1009"
         offset="0"
         style="stop-color:#bf001d;stop-opacity:1" />
      <stop
         id="stop1011"
         offset="1"
         style="stop-color:#ff3434;stop-opacity:1" />
    </linearGradient>
    <radialGradient
       inkscape:collect="always"
       xlink:href="#linearGradient1059"
       id="radialGradient993"
       gradientUnits="userSpaceOnUse"
       gradientTransform="matrix(1.6867219,-0.98621531,0.82624931,1.4131324,-560.35522,498.43915)"
       cx="376.97781"
       cy="43.296413"
       fx="376.97781"
       fy="43.296413"
       r="51.448208" />
    <linearGradient
       inkscape:collect="always"
       xlink:href="#linearGradient1025"
       id="linearGradient995"
       gradientUnits="userSpaceOnUse"
       gradientTransform="matrix(1.2358461,0,0,1.2358461,-355.81694,164.69553)"
       x1="361.44836"
       y1="-30.610594"
       x2="315.71484"
       y2="49.650444" />
    <linearGradient
       inkscape:collect="always"
       id="linearGradient1025">
      <stop
         style="stop-color:#ff0808;stop-opacity:1"
         offset="0"
         id="stop1021" />
      <stop
         style="stop-color:#ffffff;stop-opacity:0.27564103"
         offset="1"
         id="stop1023" />
    </linearGradient>
    <linearGradient
       inkscape:collect="always"
       xlink:href="#linearGradient1006"
       id="linearGradient997"
       gradientUnits="userSpaceOnUse"
       gradientTransform="matrix(-1.2337124,0.07258945,-0.07258945,-1.2337124,550.40543,212.17911)"
       x1="336.94989"
       y1="45.513065"
       x2="353.71445"
       y2="-26.231188" />
    <linearGradient
       inkscape:collect="always"
       xlink:href="#linearGradient1000"
       id="linearGradient999"
       gradientUnits="userSpaceOnUse"
       gradientTransform="matrix(-1.2337124,0.07258945,-0.07258945,-1.2337124,550.40543,212.17911)"
       x1="408.53287"
       y1="64.478027"
       x2="302.51056"
       y2="-8.8338108" />
    <radialGradient
       inkscape:collect="always"
       xlink:href="#linearGradient1059"
       id="radialGradient1001"
       gradientUnits="userSpaceOnUse"
       gradientTransform="matrix(-1.625883,1.0835849,-0.90782532,-1.3621617,734.98767,-133.00211)"
       cx="376.97781"
       cy="43.296413"
       fx="376.97781"
       fy="43.296413"
       r="51.448208" />
    <linearGradient
       inkscape:collect="always"
       xlink:href="#linearGradient1012"
       id="linearGradient1003"
       gradientUnits="userSpaceOnUse"
       gradientTransform="matrix(-1.2337124,0.07258945,-0.07258945,-1.2337124,550.40543,212.17911)"
       x1="361.44836"
       y1="-30.610594"
       x2="315.71484"
       y2="49.650444" />
    <radialGradient
       inkscape:collect="always"
       xlink:href="#linearGradient1059"
       id="radialGradient1007"
       gradientUnits="userSpaceOnUse"
       gradientTransform="matrix(1.6867219,-0.98621531,0.82624931,1.4131324,-560.35522,498.43915)"
       cx="376.97781"
       cy="43.296413"
       fx="376.97781"
       fy="43.296413"
       r="51.448208" />
    <linearGradient
       inkscape:collect="always"
       xlink:href="#linearGradient1013"
       id="linearGradient1061"
       gradientUnits="userSpaceOnUse"
       gradientTransform="matrix(1.2358461,0,0,1.2358461,-355.81694,164.69553)"
       x1="408.53287"
       y1="64.478027"
       x2="302.51056"
       y2="-8.8338108" />
  </defs>
  <sodipodi:namedview
     id="base"
     pagecolor="#ffffff"
     bordercolor="#666666"
     borderopacity="1.0"
     inkscape:pageopacity="0"
     inkscape:pageshadow="2"
     inkscape:zoom="0.98994949"
     inkscape:cx="70.602877"
     inkscape:cy="81.724009"
     inkscape:document-units="mm"
     inkscape:current-layer="layer1"
     showgrid="false"
     units="px"
     inkscape:window-width="1086"
     inkscape:window-height="708"
     inkscape:window-x="127"
     inkscape:window-y="187"
     inkscape:window-maximized="0" />
  <metadata
     id="metadata1059">
    <rdf:RDF>
      <cc:Work
         rdf:about="">
        <dc:format>image/svg+xml</dc:format>
        <dc:type
           rdf:resource="http://purl.org/dc/dcmitype/StillImage" />
        <dc:title />
      </cc:Work>
    </rdf:RDF>
  </metadata>
  <g
     inkscape:label="Layer 1"
     inkscape:groupmode="layer"
     id="layer1"
     transform="translate(0,-229.26665)">
    <g
       transform="matrix(0.38198964,0,0,0.38198964,-2.4700999,185.84098)"
       id="g1000">
      <path
         inkscape:connector-curvature="0"
         style="opacity:1;fill:url(#linearGradient987);fill-opacity:1;stroke:none;stroke-width:0.00898798;stroke-miterlimit:4;stroke-dasharray:none;stroke-opacity:1"
         d="m 58.886104,216.56954 c -4.95752,-0.5651 -8.294516,-1.54672 -12.283581,-3.61338 -8.040797,-4.16575 -14.457694,-11.91831 -17.772801,-21.47218 -1.448894,-4.17557 -2.190736,-8.33775 -2.31039,-12.96256 -0.09022,-3.485 0.157941,-6.45658 0.793351,-9.50213 0.238519,-1.14325 0.774579,-2.24528 2.708913,-5.56891 8.054096,-13.83883 17.51933,-22.96327 30.476139,-29.37883 5.925786,-2.93416 11.780989,-5.06963 23.476987,-8.56234 12.35646,-3.68994 18.218058,-5.66585 23.460898,-7.90853 0.91902,-0.39313 1.70544,-0.71477 1.74757,-0.71477 0.11716,0 -1.76052,2.40901 -2.91939,3.74545 -1.40758,1.6233 -4.3678,4.52972 -6.23712,6.12378 -0.85016,0.72497 -2.749645,2.2629 -4.221067,3.41762 -7.240377,5.68194 -8.682117,6.90107 -11.414731,9.65223 -5.239321,5.27489 -9.248135,11.38154 -12.456021,18.97436 -2.876642,6.80874 -4.066813,12.56956 -3.918161,18.96509 0.08527,3.66651 0.500132,6.29456 1.469283,9.30636 3.288906,10.22086 11.454192,17.75982 23.648077,21.83412 l 2.025144,0.67665 -1.54953,0.21603 c -4.578414,0.63829 -11.4904,2.3341 -18.545747,4.5501 -4.097189,1.28689 -6.736982,1.87312 -9.79936,2.17625 -1.1241,0.11123 -5.526269,0.14274 -6.378463,0.0456 z"
         id="path959" />
      <path
         inkscape:connector-curvature="0"
         id="path961"
         style="opacity:0.77884605;mix-blend-mode:normal;fill:#661b2b;fill-opacity:0.89516099;stroke:none;stroke-width:0.0274875;stroke-miterlimit:4;stroke-dasharray:none;stroke-opacity:1;filter:url(#filter1041-7)"
         d="m 1181.4316,-6.2460938 c -0.4811,0.8103054 -0.9635,1.6163854 -1.4414,2.4375 -5.9156,10.1645103 -7.5537,13.5349225 -8.2832,17.0312498 -1.9432,9.314079 -2.7017,18.402546 -2.4258,29.060547 0.366,14.143824 2.6334,26.872651 7.0645,39.642578 10.1384,29.218129 29.7627,52.928049 54.3535,65.667969 12.1996,6.32035 22.4051,9.32255 37.5664,11.05078 2.6062,0.29707 16.0701,0.19953 19.5078,-0.14062 9.3656,-0.92705 17.4386,-2.71868 29.9688,-6.6543 21.577,-6.77707 42.7148,-11.96397 56.7168,-13.91602 l 4.7402,-0.66015 -6.1933,-2.07032 c -31.9372,-10.67105 -54.8284,-29.11995 -67.0645,-53.830073 A 151,151 0 0 1 1181.4316,-6.2460938 Z"
         transform="matrix(0.20707643,-0.1115922,0.11743841,0.19676794,-205.28474,335.43436)" />
      <path
         inkscape:connector-curvature="0"
         style="opacity:1;fill:url(#linearGradient1061);fill-opacity:1;stroke:none;stroke-width:0.00882746;stroke-miterlimit:4;stroke-dasharray:none;stroke-opacity:1"
         d="m 88.178674,273.11243 c -11.077753,-0.57317 -22.332285,-4.02928 -31.997751,-9.82607 -16.161109,-9.6925 -27.754718,-25.37209 -32.340955,-43.73902 -1.045477,-4.18696 -1.64417,-7.83429 -2.073886,-12.63461 -0.232957,-2.60228 -0.196104,-10.34879 0.06278,-13.19616 0.564769,-6.21193 1.646839,-12.02767 3.357003,-18.04252 0.608617,-2.14063 1.990034,-6.38862 2.056053,-6.32261 0.02842,0.0284 -0.05438,0.77947 -0.184067,1.66899 -1.522167,10.44394 0.894147,21.28974 6.656477,29.87811 5.398423,8.04599 13.014634,13.29913 21.824316,15.05288 2.412924,0.48035 3.730079,0.59604 6.714858,0.58982 4.588734,-0.01 7.445095,-0.50587 13.079369,-2.27261 12.696439,-3.98124 21.500262,-5.53837 29.603759,-5.23599 11.1493,0.41601 19.80431,5.1448 29.35841,16.04043 3.28743,3.74902 7.74899,9.52221 12.82981,16.60159 l 1.94194,2.7058 -0.8807,1.03116 c -7.04321,8.24637 -15.0543,14.81218 -23.80557,19.51079 -11.21725,6.02258 -23.66505,8.83868 -36.201833,8.19002 z"
         id="path963" />
      <path
         inkscape:connector-curvature="0"
         style="opacity:1;fill:url(#radialGradient993);fill-opacity:1;stroke:none;stroke-width:0.00950651;stroke-miterlimit:4;stroke-dasharray:none;stroke-opacity:1"
         d="M 87.022616,272.61698 C 69.567932,271.22243 53.525488,263.57046 41.427912,250.86914 31.075019,239.99955 24.476577,226.07101 22.450222,210.80945 c -0.466903,-3.51652 -0.578216,-5.02275 -0.659596,-8.92474 -0.183227,-8.78525 1.034885,-17.78719 3.604864,-26.64032 1.092723,-3.76427 1.189132,-3.95723 0.764705,-1.53063 -0.595542,3.40494 -0.815276,9.11069 -0.506376,13.14856 0.720659,9.42016 3.21173,18.43259 7.437199,26.90702 2.158726,4.32945 3.919646,7.18947 6.657503,10.81291 11.282187,14.93146 27.771244,23.94244 48.667685,26.59606 4.543218,0.57695 7.436976,0.74177 13.069184,0.74442 5.05089,0.002 7.2515,-0.0911 11.75885,-0.49969 9.82468,-0.89052 21.15161,-3.09231 32.25356,-6.26967 1.83043,-0.52387 3.36888,-0.93763 3.41882,-0.91947 0.28299,0.10282 -5.14469,5.89422 -7.91489,8.44519 -12.47315,11.48606 -26.40298,18.01752 -42.157367,19.76687 -2.159372,0.23978 -9.611795,0.34759 -11.821747,0.17102 z"
         id="path969" />
      <path
         inkscape:connector-curvature="0"
         style="opacity:0.23299997;fill:url(#linearGradient995);fill-opacity:1;stroke:none;stroke-width:0.01235846;stroke-miterlimit:4;stroke-dasharray:none;stroke-opacity:1"
         d="m 55.475713,215.8759 c -3.302341,-0.69823 -5.697065,-1.53603 -8.548693,-2.9908 -3.175309,-1.6199 -6.017545,-3.74156 -8.766549,-6.54405 -3.08985,-3.14996 -5.060086,-5.95766 -7.140867,-10.17609 -4.018416,-8.14671 -5.317241,-17.03261 -3.810744,-26.07112 0.374202,-2.24504 0.431681,-2.38294 2.557954,-6.13684 3.780466,-6.67437 8.055678,-12.37395 12.944648,-17.25742 5.211674,-5.20579 10.351807,-8.9384 16.851556,-12.2371 6.709765,-3.40526 11.352926,-5.1209 25.096041,-9.27293 9.273333,-2.80164 12.182022,-3.72262 15.491991,-4.90524 1.35299,-0.48341 2.54078,-0.87776 2.63955,-0.87634 0.0987,10e-4 -0.96078,0.59793 -2.35454,1.32558 -28.989878,15.13484 -46.484244,36.48773 -49.777156,60.75587 -1.556635,11.47206 0.558578,23.63606 5.74298,33.02628 0.434768,0.7875 0.815028,1.48698 0.844996,1.55442 0.07576,0.17042 -0.178397,0.14255 -1.771167,-0.19422 z"
         id="path971" />
      <path
         id="path973"
         d="m 133.3715,184.75297 c 4.98216,0.27293 8.37105,1.05687 12.47461,2.88565 8.27159,3.68626 15.13277,11.04855 19.00332,20.39119 1.69165,4.08326 2.67668,8.19468 3.06777,12.80448 0.29477,3.47368 0.22159,6.4547 -0.23384,9.53232 -0.17092,1.1553 -0.64138,2.2869 -2.37715,5.71841 -7.22735,14.288 -16.14029,23.95265 -28.69793,31.11818 -5.7432,3.27715 -11.46286,5.75285 -22.93353,9.92651 -12.11837,4.40934 -17.853789,6.72612 -22.955856,9.27288 -0.894357,0.44645 -1.660517,0.81373 -1.702574,0.8162 -0.117035,0.006 1.615992,-2.50826 2.694354,-3.91048 1.309801,-1.70317 4.094209,-4.77844 5.866661,-6.47955 0.806118,-0.77365 2.611995,-2.42049 4.013035,-3.65965 6.89415,-6.09739 8.26179,-7.39911 10.82809,-10.30602 4.92045,-5.57353 8.56366,-11.90509 11.32003,-19.67322 2.47174,-6.96596 3.32149,-12.78675 2.79745,-19.1625 -0.30047,-3.65517 -0.86898,-6.25431 -2.01337,-9.20398 C 120.63901,204.81335 112.045,197.767 99.632869,194.41596 l -2.061391,-0.55654 1.534155,-0.30665 c 4.533017,-0.90611 11.333477,-3.00499 18.246487,-5.63156 4.01451,-1.52532 6.61531,-2.26561 9.65461,-2.74809 1.11562,-0.17706 5.50836,-0.46708 6.36476,-0.42017 z"
         style="opacity:1;fill:url(#linearGradient997);fill-opacity:1;stroke:none;stroke-width:0.00898798;stroke-miterlimit:4;stroke-dasharray:none;stroke-opacity:1"
         inkscape:connector-curvature="0" />
      <path
         transform="matrix(-0.20016438,0.12356248,-0.12879311,-0.18953029,390.10454,50.576909)"
         d="m 1181.4316,-6.2460938 c -0.4811,0.8103054 -0.9635,1.6163854 -1.4414,2.4375 -5.9156,10.1645103 -7.5537,13.5349225 -8.2832,17.0312498 -1.9432,9.314079 -2.7017,18.402546 -2.4258,29.060547 0.366,14.143824 2.6334,26.872651 7.0645,39.642578 10.1384,29.218129 29.7627,52.928049 54.3535,65.667969 12.1996,6.32035 22.4051,9.32255 37.5664,11.05078 2.6062,0.29707 16.0701,0.19953 19.5078,-0.14062 9.3656,-0.92705 17.4386,-2.71868 29.9688,-6.6543 21.577,-6.77707 42.7148,-11.96397 56.7168,-13.91602 l 4.7402,-0.66015 -6.1933,-2.07032 c -31.9372,-10.67105 -54.8284,-29.11995 -67.0645,-53.830073 A 151,151 0 0 1 1181.4316,-6.2460938 Z"
         style="opacity:0.77884605;mix-blend-mode:normal;fill:#1b4466;fill-opacity:0.89516099;stroke:none;stroke-width:0.0274875;stroke-miterlimit:4;stroke-dasharray:none;stroke-opacity:1;filter:url(#filter1041-7)"
         id="path975"
         inkscape:connector-curvature="0" />
      <path
         id="path977"
         d="m 100.80837,130.02824 c 11.0923,-0.0785 22.53039,2.7106 32.51966,7.92968 16.70251,8.72652 29.19705,23.69806 34.85419,41.76391 1.2896,4.11833 2.10151,7.72418 2.81243,12.49098 0.38541,2.5841 0.80362,10.3194 0.71241,13.17707 -0.19891,6.23437 -0.93749,12.10363 -2.29144,18.20854 -0.48186,2.17268 -1.61136,6.49449 -1.68115,6.43245 -0.0301,-0.0267 0.009,-0.7813 0.0858,-1.6769 0.9065,-10.51529 -2.14309,-21.20046 -8.39993,-29.43555 -5.8617,-7.71503 -13.7733,-12.51173 -22.6708,-13.74502 -2.43697,-0.33778 -3.75863,-0.37591 -6.73789,-0.19438 -4.58023,0.2794 -7.40254,0.94229 -12.9233,3.03691 -12.44067,4.72012 -21.137841,6.79167 -29.245101,6.96578 -11.154501,0.23959 -20.072317,-3.97269 -30.249897,-14.28832 -3.501965,-3.54945 -8.294911,-9.05062 -13.782785,-15.81934 l -2.097515,-2.58707 0.818612,-1.08112 c 6.546655,-8.64582 14.15827,-15.67084 22.618452,-20.87535 10.84413,-6.67106 23.105021,-10.21344 35.658274,-10.30226 z"
         style="opacity:1;fill:url(#linearGradient999);fill-opacity:1;stroke:none;stroke-width:0.00882746;stroke-miterlimit:4;stroke-dasharray:none;stroke-opacity:1"
         inkscape:connector-curvature="0" />
      <path
         id="path979"
         d="m 101.99154,130.45494 c 17.50644,0.3669 33.97065,7.06341 46.79338,19.03222 10.97345,10.24272 18.37862,23.75965 21.29789,38.87584 0.67265,3.48303 0.87223,4.98012 1.18266,8.87058 0.69892,8.75932 0.0111,17.81727 -2.03389,26.80607 -0.86971,3.82197 -0.95463,4.02025 -0.67347,1.5729 0.39456,-3.43405 0.27874,-9.14285 -0.26679,-13.15561 -1.27274,-9.36156 -4.28887,-18.21211 -9.0048,-26.42371 -2.40928,-4.19519 -4.33516,-6.94684 -7.28112,-10.40319 -12.13974,-14.24302 -29.12959,-22.26994 -50.14582,-23.69159 -4.569259,-0.30914 -7.467713,-0.30368 -13.090342,0.0245 -5.042314,0.29419 -7.233619,0.51684 -11.709213,1.1895 -9.755409,1.46603 -20.933453,4.32933 -31.829612,8.15328 -1.796475,0.63048 -3.307977,1.1339 -3.358906,1.1187 -0.288533,-0.086 4.789608,-6.18622 7.405177,-8.89551 11.776973,-12.19884 25.299107,-19.53722 40.923565,-22.20889 2.141547,-0.36622 9.574766,-0.91155 11.791291,-0.86509 z"
         style="opacity:1;fill:url(#radialGradient1001);fill-opacity:1;stroke:none;stroke-width:0.00950651;stroke-miterlimit:4;stroke-dasharray:none;stroke-opacity:1"
         inkscape:connector-curvature="0" />
      <path
         id="path981"
         d="m 136.81673,185.24511 c 3.33766,0.50305 5.77757,1.19822 8.70961,2.4835 3.26498,1.43061 6.22693,3.38166 9.1358,6.01784 3.26953,2.96304 5.40128,5.65016 7.72624,9.7391 4.49,7.89661 6.30849,16.69087 5.33549,25.80227 -0.24167,2.26314 -0.29099,2.40418 -2.19307,6.27649 -3.38191,6.88491 -7.31498,12.82574 -11.90867,17.98795 -4.8969,5.5029 -9.80891,9.531 -16.1037,13.20578 -6.49816,3.79347 -11.03254,5.77888 -24.50804,10.73098 -9.09278,3.34148 -11.94233,4.43172 -15.177125,5.80671 -1.322269,0.56205 -2.484842,1.02547 -2.583523,1.02986 -0.09862,0.005 0.923993,-0.65333 2.272624,-1.46159 28.050834,-16.81149 44.260814,-39.15505 46.122614,-63.57472 0.88009,-11.54367 -1.94591,-23.56243 -7.67292,-32.63194 -0.48026,-0.76058 -0.90096,-1.43654 -0.93483,-1.5021 -0.0856,-0.16566 0.16972,-0.15278 1.7795,0.09 z"
         style="opacity:0.13141025;fill:url(#linearGradient1003);fill-opacity:1;stroke:none;stroke-width:0.01235846;stroke-miterlimit:4;stroke-dasharray:none;stroke-opacity:1"
         inkscape:connector-curvature="0" />
      <path
         id="path983"
         d="m 88.178674,273.11243 c -11.077753,-0.57317 -22.332285,-4.02928 -31.997751,-9.82607 -16.161109,-9.6925 -27.754718,-25.37209 -32.340955,-43.73902 -1.045477,-4.18696 -1.64417,-7.83429 -2.073886,-12.63461 -0.232957,-2.60228 -0.196104,-10.34879 0.06278,-13.19616 0.564769,-6.21193 1.646839,-12.02767 3.357003,-18.04252 0.608617,-2.14063 1.990034,-6.38862 2.056053,-6.32261 0.02842,0.0284 -0.05438,0.77947 -0.184067,1.66899 -1.522167,10.44394 0.894147,21.28974 6.656477,29.87811 5.398423,8.04599 13.014634,13.29913 21.824316,15.05288 2.412924,0.48035 3.730079,0.59604 6.714858,0.58982 4.588734,-0.01 7.445095,-0.50587 13.079369,-2.27261 12.696439,-3.98124 21.500262,-5.53837 29.603759,-5.23599 11.1493,0.41601 19.80431,5.1448 29.35841,16.04043 3.28743,3.74902 7.74899,9.52221 12.82981,16.60159 l 1.94194,2.7058 -0.8807,1.03116 c -7.04321,8.24637 -15.0543,14.81218 -23.80557,19.51079 -11.21725,6.02258 -23.66505,8.83868 -36.201833,8.19002 z"
         style="opacity:1;fill:url(#linearGradient986);fill-opacity:1;stroke:none;stroke-width:0.00882746;stroke-miterlimit:4;stroke-dasharray:none;stroke-opacity:1"
         inkscape:connector-curvature="0" />
      <path
         id="path985"
         d="M 87.022616,272.61698 C 69.567932,271.22243 53.525488,263.57046 41.427912,250.86914 31.075019,239.99955 24.476577,226.07101 22.450222,210.80945 c -0.466903,-3.51652 -0.578216,-5.02275 -0.659596,-8.92474 -0.183227,-8.78525 1.034885,-17.78719 3.604864,-26.64032 1.092723,-3.76427 1.189132,-3.95723 0.764705,-1.53063 -0.595542,3.40494 -0.815276,9.11069 -0.506376,13.14856 0.720659,9.42016 3.21173,18.43259 7.437199,26.90702 2.158726,4.32945 3.919646,7.18947 6.657503,10.81291 11.282187,14.93146 27.771244,23.94244 48.667685,26.59606 4.543218,0.57695 7.436976,0.74177 13.069184,0.74442 5.05089,0.002 7.2515,-0.0911 11.75885,-0.49969 9.82468,-0.89052 21.15161,-3.09231 32.25356,-6.26967 1.83043,-0.52387 3.36888,-0.93763 3.41882,-0.91947 0.28299,0.10282 -5.14469,5.89422 -7.91489,8.44519 -12.47315,11.48606 -26.40298,18.01752 -42.157367,19.76687 -2.159372,0.23978 -9.611795,0.34759 -11.821747,0.17102 z"
         style="opacity:1;fill:url(#radialGradient1007);fill-opacity:1;stroke:none;stroke-width:0.00950651;stroke-miterlimit:4;stroke-dasharray:none;stroke-opacity:1"
         inkscape:connector-curvature="0" />
    </g>
  </g>
</svg>
