<?xml version="1.0" encoding="UTF-8" standalone="no"?>
<svg
   xmlns:dc="http://purl.org/dc/elements/1.1/"
   xmlns:cc="http://creativecommons.org/ns#"
   xmlns:rdf="http://www.w3.org/1999/02/22-rdf-syntax-ns#"
   xmlns:svg="http://www.w3.org/2000/svg"
   xmlns="http://www.w3.org/2000/svg"
   xmlns:xlink="http://www.w3.org/1999/xlink"
   xmlns:sodipodi="http://sodipodi.sourceforge.net/DTD/sodipodi-0.dtd"
   xmlns:inkscape="http://www.inkscape.org/namespaces/inkscape"
   width="400"
   height="400"
   viewBox="0 0 105.83333 105.83334"
   version="1.1"
   id="svg8"
   inkscape:version="0.92.2 (5c3e80d, 2017-08-06)"
   sodipodi:docname="Graphic Designing.svg">
  <defs
     id="defs2">
    <linearGradient
       id="linearGradient1007"
       inkscape:collect="always">
      <stop
         id="stop1003"
         offset="0"
         style="stop-color:#fff000;stop-opacity:1" />
      <stop
         id="stop1005"
         offset="1"
         style="stop-color:#f700ca;stop-opacity:1" />
    </linearGradient>
    <linearGradient
       id="linearGradient1001"
       inkscape:collect="always">
      <stop
         id="stop997"
         offset="0"
         style="stop-color:#aa00ff;stop-opacity:1" />
      <stop
         id="stop999"
         offset="1"
         style="stop-color:#34ceff;stop-opacity:1" />
    </linearGradient>
    <linearGradient
       inkscape:collect="always"
       id="linearGradient933">
      <stop
         style="stop-color:#00ff08;stop-opacity:1"
         offset="0"
         id="stop929" />
      <stop
         style="stop-color:#0061f7;stop-opacity:1"
         offset="1"
         id="stop931" />
    </linearGradient>
    <linearGradient
       inkscape:collect="always"
       xlink:href="#linearGradient933"
       id="linearGradient935"
       x1="326.4043"
       y1="62.489395"
       x2="111.2154"
       y2="288.13492"
       gradientUnits="userSpaceOnUse" />
    <linearGradient
       inkscape:collect="always"
       xlink:href="#linearGradient933"
       id="linearGradient943"
       x1="21.422117"
       y1="45.451633"
       x2="47.936508"
       y2="45.451633"
       gradientUnits="userSpaceOnUse" />
    <linearGradient
       inkscape:collect="always"
       xlink:href="#linearGradient933"
       id="linearGradient951"
       x1="185.95508"
       y1="171.01367"
       x2="326.4082"
       y2="171.01367"
       gradientUnits="userSpaceOnUse" />
    <linearGradient
       inkscape:collect="always"
       xlink:href="#linearGradient933"
       id="linearGradient959"
       x1="62.111374"
       y1="52.580379"
       x2="74.356483"
       y2="52.580379"
       gradientUnits="userSpaceOnUse" />
    <linearGradient
       inkscape:collect="always"
       xlink:href="#linearGradient933"
       id="linearGradient967"
       x1="89.261719"
       y1="164.64551"
       x2="173.93164"
       y2="164.64551"
       gradientUnits="userSpaceOnUse" />
    <linearGradient
       inkscape:collect="always"
       xlink:href="#linearGradient1007"
       id="linearGradient979"
       x1="17.197914"
       y1="101.39211"
       x2="59.342262"
       y2="101.39211"
       gradientUnits="userSpaceOnUse"
       gradientTransform="translate(-17.386905,-21.922619)" />
    <linearGradient
       inkscape:collect="always"
       xlink:href="#linearGradient1001"
       id="linearGradient995"
       x1="71.059525"
       y1="9.4494047"
       x2="90.336304"
       y2="9.4494047"
       gradientUnits="userSpaceOnUse"
       gradientTransform="translate(8.6934524,14.363095)" />
  </defs>
  <sodipodi:namedview
     id="base"
     pagecolor="#ffffff"
     bordercolor="#666666"
     borderopacity="1.0"
     inkscape:pageopacity="0.0"
     inkscape:pageshadow="2"
     inkscape:zoom="0.7"
     inkscape:cx="125.17496"
     inkscape:cy="233.53938"
     inkscape:document-units="mm"
     inkscape:current-layer="layer1"
     inkscape:document-rotation="0"
     showgrid="false"
     units="px"
     inkscape:window-width="1280"
     inkscape:window-height="962"
     inkscape:window-x="-8"
     inkscape:window-y="-8"
     inkscape:window-maximized="1"
     showguides="true"
     inkscape:guide-bbox="true" />
  <metadata
     id="metadata5">
    <rdf:RDF>
      <cc:Work
         rdf:about="">
        <dc:format>image/svg+xml</dc:format>
        <dc:type
           rdf:resource="http://purl.org/dc/dcmitype/StillImage" />
        <dc:title />
      </cc:Work>
    </rdf:RDF>
  </metadata>
  <g
     inkscape:label="Layer 1"
     inkscape:groupmode="layer"
     id="layer1">
    <rect
       style="opacity:1;fill:#ffffff;fill-opacity:1;stroke:none;stroke-width:2.06500006;stroke-miterlimit:4;stroke-dasharray:none;stroke-opacity:1"
       id="rect833"
       width="183.69643"
       height="136.82739"
       x="-38.573219"
       y="-4.6652179"
       rx="0.96856022"
       ry="0.96856022" />
    <path
       style="color:#000000;font-style:normal;font-variant:normal;font-weight:normal;font-stretch:normal;font-size:medium;line-height:normal;font-family:sans-serif;font-variant-ligatures:normal;font-variant-position:normal;font-variant-caps:normal;font-variant-numeric:normal;font-variant-alternates:normal;font-variant-east-asian:normal;font-feature-settings:normal;font-variation-settings:normal;text-indent:0;text-align:start;text-decoration:none;text-decoration-line:none;text-decoration-style:solid;text-decoration-color:#000000;letter-spacing:normal;word-spacing:normal;text-transform:none;writing-mode:lr-tb;direction:ltr;text-orientation:mixed;dominant-baseline:auto;baseline-shift:baseline;text-anchor:start;white-space:normal;shape-padding:0;shape-margin:0;inline-size:0;clip-rule:nonzero;display:inline;overflow:visible;visibility:visible;opacity:0.591;isolation:auto;mix-blend-mode:normal;color-interpolation:sRGB;color-interpolation-filters:linearRGB;solid-color:#000000;solid-opacity:1;vector-effect:none;fill:url(#linearGradient935);fill-opacity:1;fill-rule:nonzero;stroke:none;stroke-width:8.61732;stroke-linecap:butt;stroke-linejoin:miter;stroke-miterlimit:4;stroke-dasharray:none;stroke-dashoffset:0;stroke-opacity:1;color-rendering:auto;image-rendering:auto;shape-rendering:auto;text-rendering:auto;enable-background:accumulate;stop-color:#000000;stop-opacity:1"
       d="M 71.404297 90.302734 C 62.028396 90.302734 54.589844 98.325465 54.589844 107.8418 L 54.589844 263.58594 C 54.589844 273.10227 62.028396 281.125 71.404297 281.125 L 169.37891 281.125 L 169.60938 315.04492 L 150.04492 315.04492 L 150.04492 318.82422 L 247.02148 318.82422 L 247.02148 315.04492 L 227.22266 315.04492 L 227.67969 281.125 L 325.10547 281.125 C 334.48137 281.125 341.92969 273.10227 341.92969 263.58594 L 341.92969 107.8418 C 341.92969 98.325465 334.48137 90.302734 325.10547 90.302734 L 71.404297 90.302734 z M 71.404297 98.917969 L 325.10547 98.917969 C 329.58928 98.917969 333.30664 102.69786 333.30664 107.8418 L 333.30664 233.47461 L 63.203125 233.47461 L 63.203125 107.8418 C 63.203125 102.69786 66.920481 98.917969 71.404297 98.917969 z M 63.203125 239.38672 L 333.30664 239.38672 L 333.30664 263.58594 C 333.30664 268.72987 329.58928 272.50977 325.10547 272.50977 L 71.404297 272.50977 C 66.920481 272.50977 63.203125 268.72987 63.203125 263.58594 L 63.203125 239.38672 z M 173.16016 281.125 L 223.89062 281.125 L 223.44141 315.04492 L 173.39648 315.04492 L 173.16016 281.125 z "
       transform="scale(0.26458333)"
       id="path854" />
    <path
       style="opacity:0.59100001;fill:none;stroke:url(#linearGradient959);stroke-width:0.982;stroke-miterlimit:4;stroke-dasharray:none"
       d="m 67.961268,43.906554 -4.958178,10.159728 0.0033,0.0017 -0.006,0.006 2.754431,2.829084 0.122858,-0.120182 -2.670405,-2.742714 4.745267,-9.723193 v 7.698546 c -0.441843,0.114882 -0.769287,0.515857 -0.769287,0.993242 0,0.566663 0.460729,1.028392 1.027388,1.028392 0.566663,0 1.028728,-0.461729 1.028728,-1.028392 0,-0.465108 -0.311585,-0.858351 -0.736479,-0.984538 h 0.005 v -7.692522 l 4.4798,9.671642 -2.373135,2.766818 0.130222,0.11248 2.442097,-2.847497 0.0037,-0.0017 -6.69e-4,-0.0017 6.69e-4,-10e-4 -0.002,-0.0017 -4.688022,-10.121564 -0.07934,0.03683 h -0.08402 v 8.045361 c -0.04152,-0.0051 -0.08367,-0.0084 -0.126542,-0.0084 -0.02953,0 -0.05846,0.0019 -0.08737,0.0044 v -8.041344 h -0.0847 z m 0.249397,8.275681 c 0.457971,0 0.827535,0.368558 0.827535,0.826529 0,0.45797 -0.369564,0.827199 -0.827535,0.827199 -0.457967,0 -0.826195,-0.369229 -0.826195,-0.827199 0,-0.457971 0.368228,-0.826529 0.826195,-0.826529 z m 0.02343,4.433267 a 5.6316723,4.5397292 0 0 0 -5.63172,4.539723 5.6316723,4.5397292 0 0 0 0.01172,0.264797 H 73.84908 a 5.6316723,4.5397292 0 0 0 0.0164,-0.264797 5.6316723,4.5397292 0 0 0 -5.631385,-4.539723 z"
       id="path825"
       inkscape:connector-curvature="0" />
    <path
       style="color:#000000;font-style:normal;font-variant:normal;font-weight:normal;font-stretch:normal;font-size:medium;line-height:normal;font-family:sans-serif;font-variant-ligatures:normal;font-variant-position:normal;font-variant-caps:normal;font-variant-numeric:normal;font-variant-alternates:normal;font-feature-settings:normal;text-indent:0;text-align:start;text-decoration:none;text-decoration-line:none;text-decoration-style:solid;text-decoration-color:#000000;letter-spacing:normal;word-spacing:normal;text-transform:none;writing-mode:lr-tb;direction:ltr;text-orientation:mixed;dominant-baseline:auto;baseline-shift:baseline;text-anchor:start;white-space:normal;shape-padding:0;clip-rule:nonzero;display:inline;overflow:visible;visibility:visible;opacity:0.59100001;isolation:auto;mix-blend-mode:normal;color-interpolation:sRGB;color-interpolation-filters:linearRGB;solid-color:#000000;solid-opacity:1;vector-effect:none;fill:url(#linearGradient951);fill-opacity:1.0;fill-rule:nonzero;stroke:none;stroke-width:0.37795276;stroke-linecap:butt;stroke-linejoin:miter;stroke-miterlimit:4;stroke-dasharray:none;stroke-dashoffset:0;stroke-opacity:1;color-rendering:auto;image-rendering:auto;shape-rendering:auto;text-rendering:auto;enable-background:accumulate"
       d="M 192.78711 134.31641 L 192.48047 134.62305 L 185.95508 141.14844 L 192.78711 147.98047 L 199.11914 141.65039 L 248.74805 141.65039 L 248.74805 141.92383 C 221.16141 145.83535 199.91797 169.55794 199.91797 198.21875 C 199.91797 198.26594 199.92117 198.31238 199.92188 198.35938 L 194.07812 198.35938 L 194.07812 198.92773 L 194.07812 207.71094 L 208.50195 207.71094 L 208.50195 198.35938 L 202.94727 198.35938 C 202.94656 198.31238 202.94336 198.26593 202.94336 198.21875 C 202.94336 169.41963 225.51103 145.92859 253.93945 144.44922 L 259.63672 144.44922 C 288.06512 145.92861 310.63086 169.41965 310.63086 198.21875 C 310.63086 198.26594 310.62766 198.31238 310.62695 198.35938 L 304.6875 198.35938 L 304.6875 198.92773 L 304.6875 207.71094 L 319.11133 207.71094 L 319.11133 198.35938 L 313.6543 198.35938 C 313.655 198.31238 313.6582 198.26593 313.6582 198.21875 C 313.6582 169.38156 292.15112 145.54893 264.31641 141.85938 L 264.31641 141.65039 L 313.24609 141.65039 L 319.57617 147.98047 L 326.4082 141.14844 L 319.57617 134.31641 L 319.26367 134.62891 L 313.24609 140.64648 L 264.31641 140.64648 L 264.31641 134.36523 L 248.74805 134.36523 L 248.74805 134.97852 L 248.74805 140.64648 L 199.11914 140.64648 L 192.78711 134.31641 z M 192.78125 135.55273 L 198.37695 141.14844 L 192.78125 146.74414 L 187.1875 141.14844 L 192.78125 135.55273 z M 319.57031 135.55273 L 325.16602 141.14844 L 319.57031 146.74414 L 314.47656 141.65039 L 314.66016 141.65039 L 314.66016 140.64648 L 314.47656 140.64648 L 319.57031 135.55273 z M 249.97266 135.58984 L 263.08398 135.58984 L 263.08398 140.64648 L 249.97266 140.64648 L 249.97266 135.58984 z M 249.97266 141.65039 L 250.90039 141.65039 C 250.58904 141.68247 250.2825 141.73049 249.97266 141.76758 L 249.97266 141.65039 z M 262.67578 141.65039 L 263.08398 141.65039 L 263.08398 141.70117 C 262.94731 141.68609 262.81274 141.6645 262.67578 141.65039 z M 195.21484 199.49609 L 207.36523 199.49609 L 207.36523 206.57422 L 195.21484 206.57422 L 195.21484 199.49609 z M 305.82422 199.49609 L 317.97461 199.49609 L 317.97461 206.57422 L 305.82422 206.57422 L 305.82422 199.49609 z "
       transform="scale(0.26458333)"
       id="path874" />
    <rect
       style="opacity:0.59100001;fill:none;fill-opacity:1;stroke:url(#linearGradient943);stroke-width:1.001;stroke-miterlimit:4;stroke-dasharray:none;stroke-opacity:1"
       id="rect906"
       width="25.513393"
       height="25.891367"
       x="21.922617"
       y="32.505951"
       rx="0.96856022"
       ry="0.96856022" />
    <path
       style="color:#000000;font-style:normal;font-variant:normal;font-weight:normal;font-stretch:normal;font-size:medium;line-height:normal;font-family:sans-serif;font-variant-ligatures:normal;font-variant-position:normal;font-variant-caps:normal;font-variant-numeric:normal;font-variant-alternates:normal;font-feature-settings:normal;text-indent:0;text-align:start;text-decoration:none;text-decoration-line:none;text-decoration-style:solid;text-decoration-color:#000000;letter-spacing:normal;word-spacing:normal;text-transform:none;writing-mode:lr-tb;direction:ltr;text-orientation:mixed;dominant-baseline:auto;baseline-shift:baseline;text-anchor:start;white-space:normal;shape-padding:0;clip-rule:nonzero;display:inline;overflow:visible;visibility:visible;opacity:1;isolation:auto;mix-blend-mode:normal;color-interpolation:sRGB;color-interpolation-filters:linearRGB;solid-color:#000000;solid-opacity:1;vector-effect:none;fill:url(#linearGradient967);fill-opacity:1.0;fill-rule:evenodd;stroke:none;stroke-width:4.91716528;stroke-linecap:butt;stroke-linejoin:miter;stroke-miterlimit:4;stroke-dasharray:none;stroke-dashoffset:0;stroke-opacity:1;color-rendering:auto;image-rendering:auto;shape-rendering:auto;text-rendering:auto;enable-background:accumulate"
       d="M 145.08398 136.91992 C 139.22239 136.91992 134.41602 141.72435 134.41602 147.58594 C 134.41602 153.44753 139.22239 158.25391 145.08398 158.25391 C 150.94557 158.25391 155.75 153.44753 155.75 147.58594 C 155.75 141.72435 150.94557 136.91992 145.08398 136.91992 z M 145.08398 141.83594 C 148.28814 141.83594 150.83398 144.38178 150.83398 147.58594 C 150.83398 150.79009 148.28814 153.33594 145.08398 153.33594 C 141.87983 153.33594 139.33398 150.79009 139.33398 147.58594 C 139.33398 144.38178 141.87983 141.83594 145.08398 141.83594 z M 116.93555 159.00586 L 116.84766 159.13281 L 116.75977 159.05078 L 89.261719 189.05078 L 92.886719 192.37109 L 117.58789 165.42188 L 148.94531 187.01953 L 151.72656 182.9668 L 138.60547 173.92969 L 144.9707 167.88867 L 170.75 189.75977 L 173.93164 186.00977 L 145.62891 162.00391 L 144.86914 161.20508 L 134.4668 171.08008 L 116.93555 159.00586 z "
       transform="scale(0.26458333)"
       id="path908" />
    <circle
       style="opacity:0.67600002;fill:url(#linearGradient979);fill-opacity:1;stroke:none;stroke-width:0.1;stroke-miterlimit:4;stroke-dasharray:none;stroke-opacity:1"
       id="path969"
       cx="20.883183"
       cy="79.469498"
       r="21.072174" />
    <circle
       style="opacity:0.669;fill:url(#linearGradient995);fill-opacity:1;stroke:none;stroke-width:0;stroke-miterlimit:4;stroke-dasharray:none;stroke-opacity:1"
       id="path971"
       cx="89.391365"
       cy="23.8125"
       r="9.6383924" />
    <path
       id="path1009"
       transform="scale(0.26458333)"
       d="M 71.404297 90.302734 C 62.028396 90.302734 54.589844 98.325465 54.589844 107.8418 L 54.589844 263.58594 C 54.589844 273.10227 62.028396 281.125 71.404297 281.125 L 169.37891 281.125 L 169.60938 315.04492 L 150.04492 315.04492 L 150.04492 318.82422 L 247.02148 318.82422 L 247.02148 315.04492 L 227.22266 315.04492 L 227.67969 281.125 L 325.10547 281.125 C 334.48137 281.125 341.92969 273.10227 341.92969 263.58594 L 341.92969 107.8418 C 341.92969 98.325465 334.48137 90.302734 325.10547 90.302734 L 71.404297 90.302734 z M 71.404297 98.917969 L 325.10547 98.917969 C 329.58928 98.917969 333.30664 102.69786 333.30664 107.8418 L 333.30664 233.47461 L 63.203125 233.47461 L 63.203125 107.8418 C 63.203125 102.69786 66.920481 98.917969 71.404297 98.917969 z M 63.203125 239.38672 L 333.30664 239.38672 L 333.30664 263.58594 C 333.30664 268.72987 329.58928 272.50977 325.10547 272.50977 L 71.404297 272.50977 C 66.920481 272.50977 63.203125 268.72987 63.203125 263.58594 L 63.203125 239.38672 z M 173.16016 281.125 L 223.89062 281.125 L 223.44141 315.04492 L 173.39648 315.04492 L 173.16016 281.125 z "
       style="color:#000000;font-style:normal;font-variant:normal;font-weight:normal;font-stretch:normal;font-size:medium;line-height:normal;font-family:sans-serif;font-variant-ligatures:normal;font-variant-position:normal;font-variant-caps:normal;font-variant-numeric:normal;font-variant-alternates:normal;font-variant-east-asian:normal;font-feature-settings:normal;font-variation-settings:normal;text-indent:0;text-align:start;text-decoration:none;text-decoration-line:none;text-decoration-style:solid;text-decoration-color:#000000;letter-spacing:normal;word-spacing:normal;text-transform:none;writing-mode:lr-tb;direction:ltr;text-orientation:mixed;dominant-baseline:auto;baseline-shift:baseline;text-anchor:start;white-space:normal;shape-padding:0;shape-margin:0;inline-size:0;clip-rule:nonzero;display:inline;overflow:visible;visibility:visible;opacity:0.591;isolation:auto;mix-blend-mode:normal;color-interpolation:sRGB;color-interpolation-filters:linearRGB;solid-color:#000000;solid-opacity:1;vector-effect:none;fill:url(#linearGradient935);fill-opacity:1;fill-rule:nonzero;stroke:none;stroke-width:8.61732;stroke-linecap:butt;stroke-linejoin:miter;stroke-miterlimit:4;stroke-dasharray:none;stroke-dashoffset:0;stroke-opacity:1;color-rendering:auto;image-rendering:auto;shape-rendering:auto;text-rendering:auto;enable-background:accumulate;stop-color:#000000;stop-opacity:1" />
    <path
       inkscape:connector-curvature="0"
       id="path1011"
       d="m 67.961268,43.906554 -4.958178,10.159728 0.0033,0.0017 -0.006,0.006 2.754431,2.829084 0.122858,-0.120182 -2.670405,-2.742714 4.745267,-9.723193 v 7.698546 c -0.441843,0.114882 -0.769287,0.515857 -0.769287,0.993242 0,0.566663 0.460729,1.028392 1.027388,1.028392 0.566663,0 1.028728,-0.461729 1.028728,-1.028392 0,-0.465108 -0.311585,-0.858351 -0.736479,-0.984538 h 0.005 v -7.692522 l 4.4798,9.671642 -2.373135,2.766818 0.130222,0.11248 2.442097,-2.847497 0.0037,-0.0017 -6.69e-4,-0.0017 6.69e-4,-10e-4 -0.002,-0.0017 -4.688022,-10.121564 -0.07934,0.03683 h -0.08402 v 8.045361 c -0.04152,-0.0051 -0.08367,-0.0084 -0.126542,-0.0084 -0.02953,0 -0.05846,0.0019 -0.08737,0.0044 v -8.041344 h -0.0847 z m 0.249397,8.275681 c 0.457971,0 0.827535,0.368558 0.827535,0.826529 0,0.45797 -0.369564,0.827199 -0.827535,0.827199 -0.457967,0 -0.826195,-0.369229 -0.826195,-0.827199 0,-0.457971 0.368228,-0.826529 0.826195,-0.826529 z m 0.02343,4.433267 a 5.6316723,4.5397292 0 0 0 -5.63172,4.539723 5.6316723,4.5397292 0 0 0 0.01172,0.264797 H 73.84908 a 5.6316723,4.5397292 0 0 0 0.0164,-0.264797 5.6316723,4.5397292 0 0 0 -5.631385,-4.539723 z"
       style="opacity:0.59100001;fill:none;stroke:url(#linearGradient959);stroke-width:0.982;stroke-miterlimit:4;stroke-dasharray:none" />
    <path
       id="path1013"
       transform="scale(0.26458333)"
       d="M 192.78711 134.31641 L 192.48047 134.62305 L 185.95508 141.14844 L 192.78711 147.98047 L 199.11914 141.65039 L 248.74805 141.65039 L 248.74805 141.92383 C 221.16141 145.83535 199.91797 169.55794 199.91797 198.21875 C 199.91797 198.26594 199.92117 198.31238 199.92188 198.35938 L 194.07812 198.35938 L 194.07812 198.92773 L 194.07812 207.71094 L 208.50195 207.71094 L 208.50195 198.35938 L 202.94727 198.35938 C 202.94656 198.31238 202.94336 198.26593 202.94336 198.21875 C 202.94336 169.41963 225.51103 145.92859 253.93945 144.44922 L 259.63672 144.44922 C 288.06512 145.92861 310.63086 169.41965 310.63086 198.21875 C 310.63086 198.26594 310.62766 198.31238 310.62695 198.35938 L 304.6875 198.35938 L 304.6875 198.92773 L 304.6875 207.71094 L 319.11133 207.71094 L 319.11133 198.35938 L 313.6543 198.35938 C 313.655 198.31238 313.6582 198.26593 313.6582 198.21875 C 313.6582 169.38156 292.15112 145.54893 264.31641 141.85938 L 264.31641 141.65039 L 313.24609 141.65039 L 319.57617 147.98047 L 326.4082 141.14844 L 319.57617 134.31641 L 319.26367 134.62891 L 313.24609 140.64648 L 264.31641 140.64648 L 264.31641 134.36523 L 248.74805 134.36523 L 248.74805 134.97852 L 248.74805 140.64648 L 199.11914 140.64648 L 192.78711 134.31641 z M 192.78125 135.55273 L 198.37695 141.14844 L 192.78125 146.74414 L 187.1875 141.14844 L 192.78125 135.55273 z M 319.57031 135.55273 L 325.16602 141.14844 L 319.57031 146.74414 L 314.47656 141.65039 L 314.66016 141.65039 L 314.66016 140.64648 L 314.47656 140.64648 L 319.57031 135.55273 z M 249.97266 135.58984 L 263.08398 135.58984 L 263.08398 140.64648 L 249.97266 140.64648 L 249.97266 135.58984 z M 249.97266 141.65039 L 250.90039 141.65039 C 250.58904 141.68247 250.2825 141.73049 249.97266 141.76758 L 249.97266 141.65039 z M 262.67578 141.65039 L 263.08398 141.65039 L 263.08398 141.70117 C 262.94731 141.68609 262.81274 141.6645 262.67578 141.65039 z M 195.21484 199.49609 L 207.36523 199.49609 L 207.36523 206.57422 L 195.21484 206.57422 L 195.21484 199.49609 z M 305.82422 199.49609 L 317.97461 199.49609 L 317.97461 206.57422 L 305.82422 206.57422 L 305.82422 199.49609 z "
       style="color:#000000;font-style:normal;font-variant:normal;font-weight:normal;font-stretch:normal;font-size:medium;line-height:normal;font-family:sans-serif;font-variant-ligatures:normal;font-variant-position:normal;font-variant-caps:normal;font-variant-numeric:normal;font-variant-alternates:normal;font-feature-settings:normal;text-indent:0;text-align:start;text-decoration:none;text-decoration-line:none;text-decoration-style:solid;text-decoration-color:#000000;letter-spacing:normal;word-spacing:normal;text-transform:none;writing-mode:lr-tb;direction:ltr;text-orientation:mixed;dominant-baseline:auto;baseline-shift:baseline;text-anchor:start;white-space:normal;shape-padding:0;clip-rule:nonzero;display:inline;overflow:visible;visibility:visible;opacity:0.59100001;isolation:auto;mix-blend-mode:normal;color-interpolation:sRGB;color-interpolation-filters:linearRGB;solid-color:#000000;solid-opacity:1;vector-effect:none;fill:url(#linearGradient951);fill-opacity:1.0;fill-rule:nonzero;stroke:none;stroke-width:0.37795276;stroke-linecap:butt;stroke-linejoin:miter;stroke-miterlimit:4;stroke-dasharray:none;stroke-dashoffset:0;stroke-opacity:1;color-rendering:auto;image-rendering:auto;shape-rendering:auto;text-rendering:auto;enable-background:accumulate" />
    <rect
       ry="0.96856022"
       rx="0.96856022"
       y="32.505951"
       x="21.922617"
       height="25.891367"
       width="25.513393"
       id="rect1015"
       style="opacity:0.59100001;fill:none;fill-opacity:1;stroke:url(#linearGradient943);stroke-width:1.001;stroke-miterlimit:4;stroke-dasharray:none;stroke-opacity:1" />
    <path
       id="path1017"
       transform="scale(0.26458333)"
       d="M 145.08398 136.91992 C 139.22239 136.91992 134.41602 141.72435 134.41602 147.58594 C 134.41602 153.44753 139.22239 158.25391 145.08398 158.25391 C 150.94557 158.25391 155.75 153.44753 155.75 147.58594 C 155.75 141.72435 150.94557 136.91992 145.08398 136.91992 z M 145.08398 141.83594 C 148.28814 141.83594 150.83398 144.38178 150.83398 147.58594 C 150.83398 150.79009 148.28814 153.33594 145.08398 153.33594 C 141.87983 153.33594 139.33398 150.79009 139.33398 147.58594 C 139.33398 144.38178 141.87983 141.83594 145.08398 141.83594 z M 116.93555 159.00586 L 116.84766 159.13281 L 116.75977 159.05078 L 89.261719 189.05078 L 92.886719 192.37109 L 117.58789 165.42188 L 148.94531 187.01953 L 151.72656 182.9668 L 138.60547 173.92969 L 144.9707 167.88867 L 170.75 189.75977 L 173.93164 186.00977 L 145.62891 162.00391 L 144.86914 161.20508 L 134.4668 171.08008 L 116.93555 159.00586 z "
       style="color:#000000;font-style:normal;font-variant:normal;font-weight:normal;font-stretch:normal;font-size:medium;line-height:normal;font-family:sans-serif;font-variant-ligatures:normal;font-variant-position:normal;font-variant-caps:normal;font-variant-numeric:normal;font-variant-alternates:normal;font-feature-settings:normal;text-indent:0;text-align:start;text-decoration:none;text-decoration-line:none;text-decoration-style:solid;text-decoration-color:#000000;letter-spacing:normal;word-spacing:normal;text-transform:none;writing-mode:lr-tb;direction:ltr;text-orientation:mixed;dominant-baseline:auto;baseline-shift:baseline;text-anchor:start;white-space:normal;shape-padding:0;clip-rule:nonzero;display:inline;overflow:visible;visibility:visible;opacity:1;isolation:auto;mix-blend-mode:normal;color-interpolation:sRGB;color-interpolation-filters:linearRGB;solid-color:#000000;solid-opacity:1;vector-effect:none;fill:url(#linearGradient967);fill-opacity:1.0;fill-rule:evenodd;stroke:none;stroke-width:4.91716528;stroke-linecap:butt;stroke-linejoin:miter;stroke-miterlimit:4;stroke-dasharray:none;stroke-dashoffset:0;stroke-opacity:1;color-rendering:auto;image-rendering:auto;shape-rendering:auto;text-rendering:auto;enable-background:accumulate" />
  </g>
</svg>
