<?xml version="1.0" encoding="UTF-8" standalone="no"?>
<svg
   xmlns:dc="http://purl.org/dc/elements/1.1/"
   xmlns:cc="http://creativecommons.org/ns#"
   xmlns:rdf="http://www.w3.org/1999/02/22-rdf-syntax-ns#"
   xmlns:svg="http://www.w3.org/2000/svg"
   xmlns="http://www.w3.org/2000/svg"
   xmlns:xlink="http://www.w3.org/1999/xlink"
   xmlns:sodipodi="http://sodipodi.sourceforge.net/DTD/sodipodi-0.dtd"
   xmlns:inkscape="http://www.inkscape.org/namespaces/inkscape"
   width="400"
   height="400"
   viewBox="0 0 105.83333 105.83334"
   version="1.1"
   id="svg8"
   inkscape:version="0.92.2 (5c3e80d, 2017-08-06)"
   sodipodi:docname="IOT.svg">
  <defs
     id="defs2">
    <linearGradient
       inkscape:collect="always"
       id="linearGradient1149">
      <stop
         style="stop-color:#e1ea00;stop-opacity:1"
         offset="0"
         id="stop1145" />
      <stop
         style="stop-color:#e86b00;stop-opacity:1"
         offset="1"
         id="stop1147" />
    </linearGradient>
    <linearGradient
       inkscape:collect="always"
       id="linearGradient1139">
      <stop
         style="stop-color:#00b7ea;stop-opacity:1"
         offset="0"
         id="stop1135" />
      <stop
         style="stop-color:#00e82f;stop-opacity:1"
         offset="1"
         id="stop1137" />
    </linearGradient>
    <linearGradient
       inkscape:collect="always"
       id="linearGradient887">
      <stop
         style="stop-color:#ea00d8;stop-opacity:1"
         offset="0"
         id="stop883" />
      <stop
         style="stop-color:#00b0e8;stop-opacity:1"
         offset="1"
         id="stop885" />
    </linearGradient>
    <linearGradient
       inkscape:collect="always"
       xlink:href="#linearGradient887"
       id="linearGradient987"
       gradientUnits="userSpaceOnUse"
       gradientTransform="matrix(0.2499835,0,0,0.2499835,14.143703,4.642999)"
       x1="114.84189"
       y1="250.35156"
       x2="230.22842"
       y2="250.35156" />
    <linearGradient
       inkscape:collect="always"
       xlink:href="#linearGradient887"
       id="linearGradient989"
       gradientUnits="userSpaceOnUse"
       gradientTransform="matrix(0.94481955,0,0,0.94481955,14.143703,4.642999)"
       x1="35.130287"
       y1="65.881256"
       x2="52.975964"
       y2="65.881256" />
    <linearGradient
       inkscape:collect="always"
       xlink:href="#linearGradient887"
       id="linearGradient993"
       gradientUnits="userSpaceOnUse"
       gradientTransform="matrix(0.94481955,0,0,0.94481955,15.178308,7.2324108)"
       x1="6.2856064"
       y1="78.064629"
       x2="48.451435"
       y2="28.058378" />
    <linearGradient
       inkscape:collect="always"
       xlink:href="#linearGradient887"
       id="linearGradient995"
       gradientUnits="userSpaceOnUse"
       gradientTransform="translate(0,2.3666667e-6)"
       x1="61.922886"
       y1="37.699722"
       x2="92.757217"
       y2="37.699722" />
    <linearGradient
       inkscape:collect="always"
       xlink:href="#linearGradient1139"
       id="linearGradient997"
       gradientUnits="userSpaceOnUse"
       gradientTransform="translate(8.9958333,6.3499998)"
       x1="-13.229167"
       y1="12.567708"
       x2="41.010418"
       y2="38.232292" />
    <linearGradient
       inkscape:collect="always"
       xlink:href="#linearGradient1149"
       id="linearGradient999"
       gradientUnits="userSpaceOnUse"
       gradientTransform="matrix(0.64788733,0,0,0.64788733,78.998623,64.032893)"
       x1="-13.229167"
       y1="12.567708"
       x2="41.010418"
       y2="38.232292" />
    <linearGradient
       inkscape:collect="always"
       xlink:href="#linearGradient887"
       id="linearGradient1001"
       gradientUnits="userSpaceOnUse"
       gradientTransform="matrix(0.2499835,0,0,0.2499835,14.143703,4.642999)"
       x1="114.84189"
       y1="250.35156"
       x2="230.22842"
       y2="250.35156" />
    <linearGradient
       inkscape:collect="always"
       xlink:href="#linearGradient887"
       id="linearGradient1003"
       gradientUnits="userSpaceOnUse"
       gradientTransform="matrix(0.94481955,0,0,0.94481955,14.143703,4.642999)"
       x1="35.130287"
       y1="65.881256"
       x2="52.975964"
       y2="65.881256" />
    <linearGradient
       inkscape:collect="always"
       xlink:href="#linearGradient887"
       id="linearGradient1005"
       gradientUnits="userSpaceOnUse"
       gradientTransform="matrix(0.94481955,0,0,0.94481955,15.049667,7.2324108)"
       x1="7.9300137"
       y1="79.995506"
       x2="40.377174"
       y2="39.210178" />
    <linearGradient
       inkscape:collect="always"
       xlink:href="#linearGradient887"
       id="linearGradient1007"
       gradientUnits="userSpaceOnUse"
       gradientTransform="matrix(0.94481955,0,0,0.94481955,15.178308,7.2324108)"
       x1="6.2856064"
       y1="78.064629"
       x2="48.451435"
       y2="28.058378" />
    <linearGradient
       inkscape:collect="always"
       xlink:href="#linearGradient887"
       id="linearGradient1009"
       gradientUnits="userSpaceOnUse"
       gradientTransform="translate(0,2.3666667e-6)"
       x1="61.922886"
       y1="37.699722"
       x2="92.757217"
       y2="37.699722" />
  </defs>
  <sodipodi:namedview
     id="base"
     pagecolor="#ffffff"
     bordercolor="#666666"
     borderopacity="1.0"
     inkscape:pageopacity="1"
     inkscape:pageshadow="2"
     inkscape:zoom="0.70710678"
     inkscape:cx="-66.933986"
     inkscape:cy="-102.17369"
     inkscape:document-units="mm"
     inkscape:current-layer="layer1"
     inkscape:document-rotation="0"
     showgrid="false"
     units="px"
     showguides="true"
     inkscape:guide-bbox="true"
     inkscape:window-width="1280"
     inkscape:window-height="962"
     inkscape:window-x="-8"
     inkscape:window-y="-8"
     inkscape:window-maximized="1" />
  <metadata
     id="metadata5">
    <rdf:RDF>
      <cc:Work
         rdf:about="">
        <dc:format>image/svg+xml</dc:format>
        <dc:type
           rdf:resource="http://purl.org/dc/dcmitype/StillImage" />
        <dc:title></dc:title>
      </cc:Work>
    </rdf:RDF>
  </metadata>
  <g
     inkscape:label="Layer 1"
     inkscape:groupmode="layer"
     id="layer1">
    <rect
       style="opacity:1;fill:#ffffff;fill-opacity:1;stroke-width:1.16499996"
       id="rect957"
       width="233.3625"
       height="143.40416"
       x="-47.625"
       y="-7.4083333"
       rx="0.93544495"
       ry="0.93544495" />
    <path
       inkscape:connector-curvature="0"
       d="m 56.228333,51.883049 c -0.168716,0 -0.304667,0.135951 -0.304667,0.304667 v 2.436362 c 0,0.05171 0.016,0.09803 0.03857,0.140615 H 45.766621 c -1.315663,0 -2.374843,1.05918 -2.374843,2.374843 v 20.123672 c 0,1.315663 1.05918,2.374843 2.374843,2.374843 h 10.229795 c -0.0434,0.05263 -0.07275,0.117593 -0.07275,0.191393 v 2.436364 c 0,0.168717 0.135951,0.304668 0.304667,0.304668 0.168717,0 0.304668,-0.135951 0.304668,-0.304668 v -2.436364 c 0,-0.0738 -0.02936,-0.138766 -0.07275,-0.191393 h 2.673654 c -0.0434,0.05263 -0.07275,0.117593 -0.07275,0.191393 v 2.436364 c 0,0.168717 0.135951,0.304668 0.304667,0.304668 0.168716,0 0.304667,-0.135951 0.304667,-0.304668 v -2.436364 c 0,-0.0738 -0.02936,-0.138766 -0.07275,-0.191393 h 2.58528 c -0.04339,0.05263 -0.07275,0.117593 -0.07275,0.191393 v 2.436364 c 0,0.168717 0.135948,0.304668 0.304667,0.304668 0.168716,0 0.304667,-0.135951 0.304667,-0.304668 v -2.436364 c 0,-0.0738 -0.02936,-0.138766 -0.07275,-0.191393 h 3.243438 c 1.315664,0 2.374844,-1.05918 2.374844,-2.374843 v -4.110081 c 0.04523,0.02653 0.09496,0.0459 0.151357,0.0459 h 2.436362 c 0.168718,0 0.304668,-0.135951 0.304668,-0.304668 0,-0.168719 -0.13595,-0.304667 -0.304668,-0.304667 h -2.436362 c -0.0564,0 -0.106133,0.01936 -0.151357,0.04589 v -3.239044 c 0.04523,0.02653 0.09496,0.04589 0.151357,0.04589 h 2.436362 c 0.168718,0 0.304668,-0.135951 0.304668,-0.304667 0,-0.168717 -0.13595,-0.304178 -0.304668,-0.304178 h -2.436362 c -0.0564,0 -0.106133,0.01944 -0.151357,0.04589 v -3.371848 c 0.04523,0.02645 0.09496,0.04589 0.151357,0.04589 h 2.436362 c 0.168718,0 0.304668,-0.135461 0.304668,-0.304177 0,-0.168719 -0.13595,-0.304668 -0.304668,-0.304668 h -2.436362 c -0.0564,0 -0.106133,0.01936 -0.151357,0.04589 v -3.548594 c 0.04523,0.02645 0.09496,0.04589 0.151357,0.04589 h 2.436362 c 0.168718,0 0.304668,-0.13546 0.304668,-0.30418 0,-0.168716 -0.13595,-0.304667 -0.304668,-0.304667 h -2.436362 c -0.0564,0 -0.106133,0.01937 -0.151357,0.0459 v -3.785396 c 0,-1.315663 -1.05918,-2.374842 -2.374844,-2.374842 H 62.68103 c 0.02257,-0.04258 0.03857,-0.08891 0.03857,-0.140616 v -2.436362 c 0,-0.168716 -0.135951,-0.304667 -0.304666,-0.304667 -0.16872,0 -0.304668,0.135951 -0.304668,0.304667 v 2.436362 c 0,0.05171 0.016,0.09803 0.03857,0.140616 h -2.516924 c 0.02257,-0.04258 0.03857,-0.08891 0.03857,-0.140616 v -2.436362 c 0,-0.168716 -0.135951,-0.304667 -0.304667,-0.304667 -0.168716,0 -0.304667,0.135951 -0.304667,0.304667 v 2.436362 c 0,0.05171 0.016,0.09803 0.03858,0.140616 h -2.605299 c 0.02257,-0.04258 0.03858,-0.08891 0.03858,-0.140616 v -2.436362 c 0,-0.168716 -0.135951,-0.304667 -0.304667,-0.304667 z"
       style="fill:none;fill-opacity:1;stroke:url(#linearGradient987);stroke-width:1.07897997;stroke-miterlimit:4;stroke-dasharray:none;stroke-opacity:1"
       id="path959" />
    <rect
       ry="1.5170138"
       rx="1.5170138"
       y="58.944534"
       x="47.821606"
       height="15.888723"
       width="15.888723"
       id="rect961"
       style="fill:none;fill-opacity:1;stroke:url(#linearGradient989);stroke-width:0.97221899;stroke-miterlimit:4;stroke-dasharray:none;stroke-opacity:1" />
    <rect
       ry="4.7977543"
       rx="4.746594"
       y="30.219173"
       x="21.182621"
       height="62.543015"
       width="32.83345"
       id="rect967"
       style="fill:none;fill-opacity:1;stroke:url(#linearGradient993);stroke-width:0.88105601;stroke-miterlimit:4;stroke-dasharray:none;stroke-opacity:1" />
    <path
       inkscape:connector-curvature="0"
       d="m 77.339464,14.552599 c -8.506507,0 -15.41663,6.911675 -15.41663,15.418181 0,3.65728 1.22138,7.19401 6.20944,11.907285 1.743832,1.647766 2.510541,5.186436 3.070098,7.318414 0,0 0,5.19e-4 0,5.19e-4 a 0.60287338,0.60647815 0 0 0 0.01395,0.117821 c 3.26e-4,0.0015 0.0012,0.0032 0.0016,0.0047 a 0.60287338,0.60647815 0 0 0 0.03566,0.108003 c 3.59e-4,8.52e-4 6.82e-4,0.0017 0.001,0.0026 a 0.60287338,0.60647815 0 0 0 0.0553,0.09922 0.60287338,0.60647815 0 0 0 0.07338,0.08733 c 2.7e-4,2.65e-4 7.91e-4,7.97e-4 0.001,10e-4 a 0.60287338,0.60647815 0 0 0 0.08682,0.0708 0.60287338,0.60647815 0 0 0 0.0016,5.16e-4 0.60287338,0.60647815 0 0 0 0.09974,0.05374 c 8.49e-4,3.49e-4 0.0017,6.85e-4 0.0026,10e-4 a 0.60287338,0.60647815 0 0 0 0.108522,0.03359 c 5.45e-4,1.11e-4 0.0016,4.05e-4 0.0021,5.16e-4 a 0.60287338,0.60647815 0 0 0 0.001,0 c 3.97e-4,8e-5 6.06e-4,4.37e-4 0.001,5.16e-4 a 0.60287338,0.60647815 0 0 0 0.117306,0.01137 0.60287338,0.60647815 0 0 0 0.117822,-0.01137 c 6.72e-4,-1.32e-4 0.0014,-3.78e-4 0.0021,-5.16e-4 a 0.60287338,0.60647815 0 0 0 0.108519,-0.03307 0.60287338,0.60647815 0 0 0 0.100253,-0.05323 0.60287338,0.60647815 0 0 0 0.08836,-0.07028 0.60287338,0.60647815 0 0 0 0.07286,-0.08475 0.60287338,0.60647815 0 0 0 10e-4,-10e-4 c 4.48e-4,-6.33e-4 5.88e-4,-0.0015 0.001,-0.0021 a 0.60287338,0.60647815 0 0 0 0.05529,-0.09663 0.60287338,0.60647815 0 0 0 5.16e-4,0 c 1.24e-4,-2.67e-4 3.96e-4,-7.93e-4 5.18e-4,-10e-4 a 0.60287338,0.60647815 0 0 0 0.03721,-0.108003 0.60287338,0.60647815 0 0 0 0,-5.19e-4 c 9.2e-5,-3.75e-4 -9.3e-5,-0.0012 0,-0.0016 a 0.60287338,0.60647815 0 0 0 0.01654,-0.116787 h 0.0062 c 0.061,-0.424773 -1.52953,-6.098178 -3.508314,-8.05429 -4.633508,-4.580416 -5.643581,-7.783853 -5.643581,-11.183813 3e-6,-7.783127 6.29508,-14.078209 14.078209,-14.07821 7.783129,0 14.078212,6.295083 14.078209,14.07821 0,3.919212 -1.867916,6.541926 -6.250781,11.741401 -1.715217,2.0348 -2.733069,4.500171 -3.458702,6.910174 h -6.66161 c -0.31205,0 -0.563272,0.251219 -0.563272,0.563274 0,0.312052 0.251222,0.563271 0.563272,0.563271 h 7.296713 c 0.30697,0 0.553718,-0.243835 0.561724,-0.548804 h 0.0015 c 0.444686,-2.055564 1.835044,-5.196782 3.255614,-6.679179 4.958185,-5.173956 6.594948,-8.296883 6.594945,-12.550137 0,-8.506506 -6.911152,-15.418182 -15.417662,-15.418181 z m 5.361429,3.604432 a 0.729694,0.729694 0 0 0 -0.728636,0.729671 0.729694,0.729694 0 0 0 0.729671,0.729672 0.729694,0.729694 0 0 0 0.729671,-0.729672 0.729694,0.729694 0 0 0 -0.729671,-0.729671 0.729694,0.729694 0 0 0 -10e-4,0 z m 1.588535,1.203544 a 0.62846904,0.62846904 0 0 0 -0.628385,0.628386 0.62846904,0.62846904 0 0 0 0.295589,0.532784 c 6.049457,5.645325 5.364946,13.207378 0.222208,17.55345 -0.0345,0.02916 -0.06757,0.06752 -0.100253,0.106453 a 0.66354816,0.66354816 0 0 0 -0.346747,0.582911 0.66354816,0.66354816 0 0 0 0.663524,0.663525 0.66354816,0.66354816 0 0 0 0.519348,-0.251148 c 0.249622,-0.161414 0.483238,-0.390734 0.653191,-0.572574 5.491757,-5.875896 4.906449,-12.53181 0,-18.123958 -0.302099,-0.344317 -0.814938,-0.920358 -0.814938,-0.920358 h -0.0041 a 0.62846904,0.62846904 0 0 0 -0.459404,-0.199471 z m -12.989904,31.86007 c -0.511466,0 -0.923459,0.411477 -0.923459,0.922941 0,0.511468 0.411993,0.923459 0.923459,0.923459 h 11.530044 c 0.511466,0 0.92346,-0.411991 0.92346,-0.923459 0,-0.511464 -0.411994,-0.922941 -0.92346,-0.922941 z m 0.756026,3.327447 c -0.531527,0 -0.959115,0.427586 -0.959115,0.959115 v 0.205155 c 0,0.531524 0.427588,0.959115 0.959115,0.959115 h 9.827307 c 0.531524,0 0.959631,-0.427591 0.959631,-0.959115 v -0.205155 c 0,-0.531529 -0.428107,-0.959115 -0.959631,-0.959115 z m 4.507735,3.583242 c -0.752231,0 -1.358058,0.605308 -1.358058,1.35754 0,0.752231 0.605827,1.358059 1.358058,1.358059 h 0.959631 c 0.752231,0 1.35754,-0.605828 1.35754,-1.358059 0,-0.752232 -0.605309,-1.35754 -1.35754,-1.35754 z"
       style="color:#000000;font-style:normal;font-variant:normal;font-weight:normal;font-stretch:normal;font-size:medium;line-height:normal;font-family:sans-serif;font-variant-ligatures:normal;font-variant-position:normal;font-variant-caps:normal;font-variant-numeric:normal;font-variant-alternates:normal;font-feature-settings:normal;text-indent:0;text-align:start;text-decoration:none;text-decoration-line:none;text-decoration-style:solid;text-decoration-color:#000000;letter-spacing:normal;word-spacing:normal;text-transform:none;writing-mode:lr-tb;direction:ltr;text-orientation:mixed;dominant-baseline:auto;baseline-shift:baseline;text-anchor:start;white-space:normal;shape-padding:0;clip-rule:nonzero;display:inline;overflow:visible;visibility:visible;opacity:1;isolation:auto;mix-blend-mode:normal;color-interpolation:sRGB;color-interpolation-filters:linearRGB;solid-color:#000000;solid-opacity:1;vector-effect:none;fill:url(#linearGradient995);fill-opacity:1;fill-rule:nonzero;stroke:none;stroke-width:1.33850062;stroke-linecap:butt;stroke-linejoin:miter;stroke-miterlimit:4;stroke-dasharray:none;stroke-dashoffset:0;stroke-opacity:1;color-rendering:auto;image-rendering:auto;shape-rendering:auto;text-rendering:auto;enable-background:accumulate"
       id="path969" />
    <circle
       r="28.178125"
       cy="30.030209"
       cx="21.828125"
       id="circle971"
       style="opacity:0.57096773;fill:url(#linearGradient997);fill-opacity:1;stroke:none;stroke-width:1.56500006;stroke-miterlimit:4;stroke-dasharray:none;stroke-opacity:1" />
    <circle
       r="18.25625"
       cy="79.375"
       cx="87.312485"
       id="circle973"
       style="opacity:0.590323;fill:url(#linearGradient999);fill-opacity:1;stroke:none;stroke-width:1.01393998;stroke-miterlimit:4;stroke-dasharray:none;stroke-opacity:1" />
    <path
       inkscape:connector-curvature="0"
       d="m 56.228333,51.883049 c -0.168716,0 -0.304667,0.135951 -0.304667,0.304667 v 2.436362 c 0,0.05171 0.016,0.09803 0.03857,0.140615 H 45.766621 c -1.315663,0 -2.374843,1.05918 -2.374843,2.374843 v 20.123672 c 0,1.315663 1.05918,2.374843 2.374843,2.374843 h 10.229795 c -0.0434,0.05263 -0.07275,0.117593 -0.07275,0.191393 v 2.436364 c 0,0.168717 0.135951,0.304668 0.304667,0.304668 0.168717,0 0.304668,-0.135951 0.304668,-0.304668 v -2.436364 c 0,-0.0738 -0.02936,-0.138766 -0.07275,-0.191393 h 2.673654 c -0.0434,0.05263 -0.07275,0.117593 -0.07275,0.191393 v 2.436364 c 0,0.168717 0.135951,0.304668 0.304667,0.304668 0.168716,0 0.304667,-0.135951 0.304667,-0.304668 v -2.436364 c 0,-0.0738 -0.02936,-0.138766 -0.07275,-0.191393 h 2.58528 c -0.04339,0.05263 -0.07275,0.117593 -0.07275,0.191393 v 2.436364 c 0,0.168717 0.135948,0.304668 0.304667,0.304668 0.168716,0 0.304667,-0.135951 0.304667,-0.304668 v -2.436364 c 0,-0.0738 -0.02936,-0.138766 -0.07275,-0.191393 h 3.243438 c 1.315664,0 2.374844,-1.05918 2.374844,-2.374843 v -4.110081 c 0.04523,0.02653 0.09496,0.0459 0.151357,0.0459 h 2.436362 c 0.168718,0 0.304668,-0.135951 0.304668,-0.304668 0,-0.168719 -0.13595,-0.304667 -0.304668,-0.304667 h -2.436362 c -0.0564,0 -0.106133,0.01936 -0.151357,0.04589 v -3.239044 c 0.04523,0.02653 0.09496,0.04589 0.151357,0.04589 h 2.436362 c 0.168718,0 0.304668,-0.135951 0.304668,-0.304667 0,-0.168717 -0.13595,-0.304178 -0.304668,-0.304178 h -2.436362 c -0.0564,0 -0.106133,0.01944 -0.151357,0.04589 v -3.371848 c 0.04523,0.02645 0.09496,0.04589 0.151357,0.04589 h 2.436362 c 0.168718,0 0.304668,-0.135461 0.304668,-0.304177 0,-0.168719 -0.13595,-0.304668 -0.304668,-0.304668 h -2.436362 c -0.0564,0 -0.106133,0.01936 -0.151357,0.04589 v -3.548594 c 0.04523,0.02645 0.09496,0.04589 0.151357,0.04589 h 2.436362 c 0.168718,0 0.304668,-0.13546 0.304668,-0.30418 0,-0.168716 -0.13595,-0.304667 -0.304668,-0.304667 h -2.436362 c -0.0564,0 -0.106133,0.01937 -0.151357,0.0459 v -3.785396 c 0,-1.315663 -1.05918,-2.374842 -2.374844,-2.374842 H 62.68103 c 0.02257,-0.04258 0.03857,-0.08891 0.03857,-0.140616 v -2.436362 c 0,-0.168716 -0.135951,-0.304667 -0.304666,-0.304667 -0.16872,0 -0.304668,0.135951 -0.304668,0.304667 v 2.436362 c 0,0.05171 0.016,0.09803 0.03857,0.140616 h -2.516924 c 0.02257,-0.04258 0.03857,-0.08891 0.03857,-0.140616 v -2.436362 c 0,-0.168716 -0.135951,-0.304667 -0.304667,-0.304667 -0.168716,0 -0.304667,0.135951 -0.304667,0.304667 v 2.436362 c 0,0.05171 0.016,0.09803 0.03858,0.140616 h -2.605299 c 0.02257,-0.04258 0.03858,-0.08891 0.03858,-0.140616 v -2.436362 c 0,-0.168716 -0.135951,-0.304667 -0.304667,-0.304667 z"
       style="fill:none;fill-opacity:1;stroke:url(#linearGradient1001);stroke-width:1.07897997;stroke-miterlimit:4;stroke-dasharray:none;stroke-opacity:1"
       id="path975" />
    <rect
       ry="1.5170138"
       rx="1.5170138"
       y="58.944534"
       x="47.821606"
       height="15.888723"
       width="15.888723"
       id="rect977"
       style="fill:none;fill-opacity:1;stroke:url(#linearGradient1003);stroke-width:0.97221899;stroke-miterlimit:4;stroke-dasharray:none;stroke-opacity:1" />
    <rect
       ry="0"
       rx="0"
       y="51.436066"
       x="40.233055"
       height="41.326118"
       width="13.783023"
       id="rect979"
       style="fill:#ffffff;fill-opacity:1;stroke:none;stroke-width:0.65570748;stroke-miterlimit:4;stroke-dasharray:none;stroke-opacity:1" />
    <path
       inkscape:connector-curvature="0"
       d="m 25.716448,31.719076 c -1.568555,0 -2.831357,1.259211 -2.831357,2.823055 v 53.058996 c 0,1.563846 1.262802,2.823056 2.831357,2.823056 h 23.777727 c 1.568555,0 2.831356,-1.25921 2.831356,-2.823056 V 34.542131 c 0,-1.563844 -1.262801,-2.823055 -2.831356,-2.823055 H 44.95053 v 0.77241 c 0,0.655793 -0.52821,1.184005 -1.184004,1.184005 H 31.992888 c -0.655793,0 -1.183515,-0.528212 -1.183515,-1.184005 v -0.77241 z"
       style="fill:none;stroke:url(#linearGradient1005);stroke-width:0.68597698;stroke-opacity:1"
       id="path981" />
    <rect
       ry="4.7977543"
       rx="4.746594"
       y="30.219173"
       x="21.182621"
       height="62.543015"
       width="32.83345"
       id="rect983"
       style="fill:none;fill-opacity:1;stroke:url(#linearGradient1007);stroke-width:0.88105601;stroke-miterlimit:4;stroke-dasharray:none;stroke-opacity:1" />
    <path
       inkscape:connector-curvature="0"
       d="m 77.339464,14.552599 c -8.506507,0 -15.41663,6.911675 -15.41663,15.418181 0,3.65728 1.22138,7.19401 6.20944,11.907285 1.743832,1.647766 2.510541,5.186436 3.070098,7.318414 0,0 0,5.19e-4 0,5.19e-4 a 0.60287338,0.60647815 0 0 0 0.01395,0.117821 c 3.26e-4,0.0015 0.0012,0.0032 0.0016,0.0047 a 0.60287338,0.60647815 0 0 0 0.03566,0.108003 c 3.59e-4,8.52e-4 6.82e-4,0.0017 0.001,0.0026 a 0.60287338,0.60647815 0 0 0 0.0553,0.09922 0.60287338,0.60647815 0 0 0 0.07338,0.08733 c 2.7e-4,2.65e-4 7.91e-4,7.97e-4 0.001,10e-4 a 0.60287338,0.60647815 0 0 0 0.08682,0.0708 0.60287338,0.60647815 0 0 0 0.0016,5.16e-4 0.60287338,0.60647815 0 0 0 0.09974,0.05374 c 8.49e-4,3.49e-4 0.0017,6.85e-4 0.0026,10e-4 a 0.60287338,0.60647815 0 0 0 0.108522,0.03359 c 5.45e-4,1.11e-4 0.0016,4.05e-4 0.0021,5.16e-4 a 0.60287338,0.60647815 0 0 0 0.001,0 c 3.97e-4,8e-5 6.06e-4,4.37e-4 0.001,5.16e-4 a 0.60287338,0.60647815 0 0 0 0.117306,0.01137 0.60287338,0.60647815 0 0 0 0.117822,-0.01137 c 6.72e-4,-1.32e-4 0.0014,-3.78e-4 0.0021,-5.16e-4 a 0.60287338,0.60647815 0 0 0 0.108519,-0.03307 0.60287338,0.60647815 0 0 0 0.100253,-0.05323 0.60287338,0.60647815 0 0 0 0.08836,-0.07028 0.60287338,0.60647815 0 0 0 0.07286,-0.08475 0.60287338,0.60647815 0 0 0 10e-4,-10e-4 c 4.48e-4,-6.33e-4 5.88e-4,-0.0015 0.001,-0.0021 a 0.60287338,0.60647815 0 0 0 0.05529,-0.09663 0.60287338,0.60647815 0 0 0 5.16e-4,0 c 1.24e-4,-2.67e-4 3.96e-4,-7.93e-4 5.18e-4,-10e-4 a 0.60287338,0.60647815 0 0 0 0.03721,-0.108003 0.60287338,0.60647815 0 0 0 0,-5.19e-4 c 9.2e-5,-3.75e-4 -9.3e-5,-0.0012 0,-0.0016 a 0.60287338,0.60647815 0 0 0 0.01654,-0.116787 h 0.0062 c 0.061,-0.424773 -1.52953,-6.098178 -3.508314,-8.05429 -4.633508,-4.580416 -5.643581,-7.783853 -5.643581,-11.183813 3e-6,-7.783127 6.29508,-14.078209 14.078209,-14.07821 7.783129,0 14.078212,6.295083 14.078209,14.07821 0,3.919212 -1.867916,6.541926 -6.250781,11.741401 -1.715217,2.0348 -2.733069,4.500171 -3.458702,6.910174 h -6.66161 c -0.31205,0 -0.563272,0.251219 -0.563272,0.563274 0,0.312052 0.251222,0.563271 0.563272,0.563271 h 7.296713 c 0.30697,0 0.553718,-0.243835 0.561724,-0.548804 h 0.0015 c 0.444686,-2.055564 1.835044,-5.196782 3.255614,-6.679179 4.958185,-5.173956 6.594948,-8.296883 6.594945,-12.550137 0,-8.506506 -6.911152,-15.418182 -15.417662,-15.418181 z m 5.361429,3.604432 a 0.729694,0.729694 0 0 0 -0.728636,0.729671 0.729694,0.729694 0 0 0 0.729671,0.729672 0.729694,0.729694 0 0 0 0.729671,-0.729672 0.729694,0.729694 0 0 0 -0.729671,-0.729671 0.729694,0.729694 0 0 0 -10e-4,0 z m 1.588535,1.203544 a 0.62846904,0.62846904 0 0 0 -0.628385,0.628386 0.62846904,0.62846904 0 0 0 0.295589,0.532784 c 6.049457,5.645325 5.364946,13.207378 0.222208,17.55345 -0.0345,0.02916 -0.06757,0.06752 -0.100253,0.106453 a 0.66354816,0.66354816 0 0 0 -0.346747,0.582911 0.66354816,0.66354816 0 0 0 0.663524,0.663525 0.66354816,0.66354816 0 0 0 0.519348,-0.251148 c 0.249622,-0.161414 0.483238,-0.390734 0.653191,-0.572574 5.491757,-5.875896 4.906449,-12.53181 0,-18.123958 -0.302099,-0.344317 -0.814938,-0.920358 -0.814938,-0.920358 h -0.0041 a 0.62846904,0.62846904 0 0 0 -0.459404,-0.199471 z m -12.989904,31.86007 c -0.511466,0 -0.923459,0.411477 -0.923459,0.922941 0,0.511468 0.411993,0.923459 0.923459,0.923459 h 11.530044 c 0.511466,0 0.92346,-0.411991 0.92346,-0.923459 0,-0.511464 -0.411994,-0.922941 -0.92346,-0.922941 z m 0.756026,3.327447 c -0.531527,0 -0.959115,0.427586 -0.959115,0.959115 v 0.205155 c 0,0.531524 0.427588,0.959115 0.959115,0.959115 h 9.827307 c 0.531524,0 0.959631,-0.427591 0.959631,-0.959115 v -0.205155 c 0,-0.531529 -0.428107,-0.959115 -0.959631,-0.959115 z m 4.507735,3.583242 c -0.752231,0 -1.358058,0.605308 -1.358058,1.35754 0,0.752231 0.605827,1.358059 1.358058,1.358059 h 0.959631 c 0.752231,0 1.35754,-0.605828 1.35754,-1.358059 0,-0.752232 -0.605309,-1.35754 -1.35754,-1.35754 z"
       style="color:#000000;font-style:normal;font-variant:normal;font-weight:normal;font-stretch:normal;font-size:medium;line-height:normal;font-family:sans-serif;font-variant-ligatures:normal;font-variant-position:normal;font-variant-caps:normal;font-variant-numeric:normal;font-variant-alternates:normal;font-feature-settings:normal;text-indent:0;text-align:start;text-decoration:none;text-decoration-line:none;text-decoration-style:solid;text-decoration-color:#000000;letter-spacing:normal;word-spacing:normal;text-transform:none;writing-mode:lr-tb;direction:ltr;text-orientation:mixed;dominant-baseline:auto;baseline-shift:baseline;text-anchor:start;white-space:normal;shape-padding:0;clip-rule:nonzero;display:inline;overflow:visible;visibility:visible;opacity:1;isolation:auto;mix-blend-mode:normal;color-interpolation:sRGB;color-interpolation-filters:linearRGB;solid-color:#000000;solid-opacity:1;vector-effect:none;fill:url(#linearGradient1009);fill-opacity:1;fill-rule:nonzero;stroke:none;stroke-width:1.33850062;stroke-linecap:butt;stroke-linejoin:miter;stroke-miterlimit:4;stroke-dasharray:none;stroke-dashoffset:0;stroke-opacity:1;color-rendering:auto;image-rendering:auto;shape-rendering:auto;text-rendering:auto;enable-background:accumulate"
       id="path985" />
    <path
       id="path1011"
       style="fill:none;stroke:url(#linearGradient1005);stroke-width:0.68597698;stroke-opacity:1"
       d="m 25.716448,31.719076 c -1.568555,0 -2.831357,1.259211 -2.831357,2.823055 v 53.058996 c 0,1.563846 1.262802,2.823056 2.831357,2.823056 h 23.777727 c 1.568555,0 2.831356,-1.25921 2.831356,-2.823056 V 34.542131 c 0,-1.563844 -1.262801,-2.823055 -2.831356,-2.823055 H 44.95053 v 0.77241 c 0,0.655793 -0.52821,1.184005 -1.184004,1.184005 H 31.992888 c -0.655793,0 -1.183515,-0.528212 -1.183515,-1.184005 v -0.77241 z"
       inkscape:connector-curvature="0" />
  </g>
</svg>
