<?xml version="1.0" encoding="UTF-8" standalone="no"?>
<svg
   xmlns:dc="http://purl.org/dc/elements/1.1/"
   xmlns:cc="http://creativecommons.org/ns#"
   xmlns:rdf="http://www.w3.org/1999/02/22-rdf-syntax-ns#"
   xmlns:svg="http://www.w3.org/2000/svg"
   xmlns="http://www.w3.org/2000/svg"
   xmlns:xlink="http://www.w3.org/1999/xlink"
   xmlns:sodipodi="http://sodipodi.sourceforge.net/DTD/sodipodi-0.dtd"
   xmlns:inkscape="http://www.inkscape.org/namespaces/inkscape"
   width="1080"
   height="720"
   viewBox="0 0 285.74999 190.50001"
   version="1.1"
   id="svg8"
   inkscape:version="0.92.2 (5c3e80d, 2017-08-06)"
   sodipodi:docname="pisces softwares section background 2.svg">
  <defs
     id="defs2">
    <linearGradient
       id="linearGradient4546"
       inkscape:collect="always">
      <stop
         id="stop4542"
         offset="0"
         style="stop-color:#9700d0;stop-opacity:1" />
      <stop
         id="stop4544"
         offset="1"
         style="stop-color:#f10000;stop-opacity:1" />
    </linearGradient>
    <linearGradient
       inkscape:collect="always"
       id="linearGradient901">
      <stop
         style="stop-color:#0070d0;stop-opacity:1"
         offset="0"
         id="stop897" />
      <stop
         style="stop-color:#f700c5;stop-opacity:1"
         offset="1"
         id="stop899" />
    </linearGradient>
    <linearGradient
       inkscape:collect="always"
       id="linearGradient887">
      <stop
         style="stop-color:#00d0c1;stop-opacity:1"
         offset="0"
         id="stop883" />
      <stop
         style="stop-color:#1bf100;stop-opacity:1"
         offset="1"
         id="stop885" />
    </linearGradient>
    <linearGradient
       inkscape:collect="always"
       id="linearGradient873">
      <stop
         style="stop-color:#d000c4;stop-opacity:1"
         offset="0"
         id="stop869" />
      <stop
         style="stop-color:#f7a700;stop-opacity:1"
         offset="1"
         id="stop871" />
    </linearGradient>
    <linearGradient
       inkscape:collect="always"
       id="linearGradient849">
      <stop
         style="stop-color:#001bd0;stop-opacity:1"
         offset="0"
         id="stop845" />
      <stop
         style="stop-color:#00c7f7;stop-opacity:1"
         offset="1"
         id="stop847" />
    </linearGradient>
    <linearGradient
       inkscape:collect="always"
       xlink:href="#linearGradient849"
       id="linearGradient851"
       x1="-19.395954"
       y1="99.901962"
       x2="127.76057"
       y2="18.210035"
       gradientUnits="userSpaceOnUse" />
    <linearGradient
       inkscape:collect="always"
       xlink:href="#linearGradient849"
       id="linearGradient859"
       x1="-22.629623"
       y1="57.452381"
       x2="125.43915"
       y2="57.452381"
       gradientUnits="userSpaceOnUse" />
    <linearGradient
       inkscape:collect="always"
       xlink:href="#linearGradient873"
       id="linearGradient867"
       x1="-22.629623"
       y1="57.452381"
       x2="125.43915"
       y2="57.452381"
       gradientUnits="userSpaceOnUse" />
    <linearGradient
       inkscape:collect="always"
       xlink:href="#linearGradient887"
       id="linearGradient881"
       x1="-22.629623"
       y1="57.452381"
       x2="125.43915"
       y2="57.452381"
       gradientUnits="userSpaceOnUse" />
    <linearGradient
       inkscape:collect="always"
       xlink:href="#linearGradient901"
       id="linearGradient895"
       x1="-22.629623"
       y1="57.452381"
       x2="125.43915"
       y2="57.452381"
       gradientUnits="userSpaceOnUse" />
    <linearGradient
       inkscape:collect="always"
       xlink:href="#linearGradient849"
       id="linearGradient4528"
       gradientUnits="userSpaceOnUse"
       x1="-22.629623"
       y1="57.452381"
       x2="125.43915"
       y2="57.452381" />
    <linearGradient
       inkscape:collect="always"
       xlink:href="#linearGradient901"
       id="linearGradient4532"
       gradientUnits="userSpaceOnUse"
       x1="-22.629623"
       y1="57.452381"
       x2="125.43915"
       y2="57.452381" />
    <linearGradient
       inkscape:collect="always"
       xlink:href="#linearGradient4546"
       id="linearGradient4536"
       gradientUnits="userSpaceOnUse"
       x1="-22.629623"
       y1="57.452381"
       x2="125.43915"
       y2="57.452381" />
    <linearGradient
       inkscape:collect="always"
       xlink:href="#linearGradient873"
       id="linearGradient4540"
       gradientUnits="userSpaceOnUse"
       x1="-22.629623"
       y1="57.452381"
       x2="125.43915"
       y2="57.452381" />
  </defs>
  <sodipodi:namedview
     id="base"
     pagecolor="#ffffff"
     bordercolor="#666666"
     borderopacity="1.0"
     inkscape:pageopacity="0.0"
     inkscape:pageshadow="2"
     inkscape:zoom="0.7"
     inkscape:cx="531.24048"
     inkscape:cy="228.51262"
     inkscape:document-units="mm"
     inkscape:current-layer="layer1"
     inkscape:document-rotation="0"
     showgrid="false"
     units="px"
     inkscape:window-width="1280"
     inkscape:window-height="962"
     inkscape:window-x="-8"
     inkscape:window-y="-8"
     inkscape:window-maximized="1" />
  <metadata
     id="metadata5">
    <rdf:RDF>
      <cc:Work
         rdf:about="">
        <dc:format>image/svg+xml</dc:format>
        <dc:type
           rdf:resource="http://purl.org/dc/dcmitype/StillImage" />
        <dc:title />
      </cc:Work>
    </rdf:RDF>
  </metadata>
  <g
     inkscape:label="Layer 1"
     inkscape:groupmode="layer"
     id="layer1">
    <path
       sodipodi:type="star"
       style="opacity:0.64423104;fill:url(#linearGradient851);fill-opacity:1;stroke:none;stroke-width:0;stroke-miterlimit:4;stroke-dasharray:none;stroke-opacity:1"
       id="path833"
       sodipodi:sides="6"
       sodipodi:cx="51.404762"
       sodipodi:cy="57.452381"
       sodipodi:r1="82.62532"
       sodipodi:r2="65.4674"
       sodipodi:arg1="0.52359878"
       sodipodi:arg2="1.0471976"
       inkscape:flatsided="true"
       inkscape:rounded="0.08"
       inkscape:randomized="0"
       d="m 122.96039,98.765042 c -3.30501,5.724448 -64.945602,41.312658 -71.555628,41.312658 -6.610026,0 -68.250614,-35.58821 -71.555626,-41.312659 -3.305013,-5.72445 -3.305013,-76.90087 0,-82.62532 3.305013,-5.724451 64.945601,-41.31266 71.555627,-41.31266 6.610025,0 68.250617,35.58821 71.555627,41.31266 3.30501,5.72445 3.30501,76.900871 0,82.625321 z"
       transform="matrix(0.30502361,0.08173083,-0.08173083,0.30502361,171.09076,38.808462)" />
    <path
       sodipodi:type="star"
       style="opacity:0.375;fill:url(#linearGradient859);fill-opacity:1;stroke:none;stroke-width:0;stroke-miterlimit:4;stroke-dasharray:none;stroke-opacity:1"
       id="path835"
       sodipodi:sides="6"
       sodipodi:cx="51.404762"
       sodipodi:cy="57.452381"
       sodipodi:r1="82.62532"
       sodipodi:r2="65.4674"
       sodipodi:arg1="0.52359878"
       sodipodi:arg2="1.0471976"
       inkscape:flatsided="true"
       inkscape:rounded="0.08"
       inkscape:randomized="0"
       d="m 122.96039,98.765042 c -3.30501,5.724448 -64.945602,41.312658 -71.555628,41.312658 -6.610026,0 -68.250614,-35.58821 -71.555626,-41.312659 -3.305013,-5.72445 -3.305013,-76.90087 0,-82.62532 3.305013,-5.724451 64.945601,-41.31266 71.555627,-41.31266 6.610025,0 68.250617,35.58821 71.555627,41.31266 3.30501,5.72445 3.30501,76.900871 0,82.625321 z"
       transform="matrix(0.27543939,0.07380376,-0.07380376,0.27543939,-156.75092,33.035499)" />
    <path
       sodipodi:type="star"
       style="opacity:0.375;fill:url(#linearGradient867);fill-opacity:1;stroke:none;stroke-width:0;stroke-miterlimit:4;stroke-dasharray:none;stroke-opacity:1"
       id="path837"
       sodipodi:sides="6"
       sodipodi:cx="51.404762"
       sodipodi:cy="57.452381"
       sodipodi:r1="82.62532"
       sodipodi:r2="65.4674"
       sodipodi:arg1="0.52359878"
       sodipodi:arg2="1.0471976"
       inkscape:flatsided="true"
       inkscape:rounded="0.08"
       inkscape:randomized="0"
       d="m 122.96039,98.765042 c -3.30501,5.724448 -64.945602,41.312658 -71.555628,41.312658 -6.610026,0 -68.250614,-35.58821 -71.555626,-41.312659 -3.305013,-5.72445 -3.305013,-76.90087 0,-82.62532 3.305013,-5.724451 64.945601,-41.31266 71.555627,-41.31266 6.610025,0 68.250617,35.58821 71.555627,41.31266 3.30501,5.72445 3.30501,76.900871 0,82.625321 z"
       transform="matrix(0.24036895,0.05941039,-0.05941039,0.24036895,-125.87106,121.08055)" />
    <path
       sodipodi:type="star"
       style="opacity:0.65064105;fill:url(#linearGradient881);fill-opacity:1;stroke:none;stroke-width:0;stroke-miterlimit:4;stroke-dasharray:none;stroke-opacity:1"
       id="path841"
       sodipodi:sides="6"
       sodipodi:cx="51.404762"
       sodipodi:cy="57.452381"
       sodipodi:r1="82.62532"
       sodipodi:r2="65.4674"
       sodipodi:arg1="0.52359878"
       sodipodi:arg2="1.0471976"
       inkscape:flatsided="true"
       inkscape:rounded="0.08"
       inkscape:randomized="0"
       d="m 122.96039,98.765042 c -3.30501,5.724448 -64.945602,41.312658 -71.555628,41.312658 -6.610026,0 -68.250614,-35.58821 -71.555626,-41.312659 -3.305013,-5.72445 -3.305013,-76.90087 0,-82.62532 3.305013,-5.724451 64.945601,-41.31266 71.555627,-41.31266 6.610025,0 68.250617,35.58821 71.555627,41.31266 3.30501,5.72445 3.30501,76.900871 0,82.625321 z"
       transform="matrix(-0.14976408,0.1476325,-0.1476325,-0.14976408,224.4774,122.817)" />
    <path
       sodipodi:type="star"
       style="opacity:0.65064105;fill:url(#linearGradient895);fill-opacity:1;stroke:none;stroke-width:0;stroke-miterlimit:4;stroke-dasharray:none;stroke-opacity:1"
       id="path843"
       sodipodi:sides="6"
       sodipodi:cx="51.404762"
       sodipodi:cy="57.452381"
       sodipodi:r1="82.62532"
       sodipodi:r2="65.4674"
       sodipodi:arg1="0.52359878"
       sodipodi:arg2="1.0471976"
       inkscape:flatsided="true"
       inkscape:rounded="0.08"
       inkscape:randomized="0"
       d="m 122.96039,98.765042 c -3.30501,5.724448 -64.945602,41.312658 -71.555628,41.312658 -6.610026,0 -68.250614,-35.58821 -71.555626,-41.312659 -3.305013,-5.72445 -3.305013,-76.90087 0,-82.62532 3.305013,-5.724451 64.945601,-41.31266 71.555627,-41.31266 6.610025,0 68.250617,35.58821 71.555627,41.31266 3.30501,5.72445 3.30501,76.900871 0,82.625321 z"
       transform="matrix(-0.13733136,0.02839964,-0.02839964,-0.13733136,-73.045641,34.229277)" />
    <path
       transform="matrix(-0.09408967,0.09275049,-0.09275049,-0.09408967,104.8579,127.16428)"
       d="m 122.96039,98.765042 c -3.30501,5.724448 -64.945602,41.312658 -71.555628,41.312658 -6.610026,0 -68.250614,-35.58821 -71.555626,-41.312659 -3.305013,-5.72445 -3.305013,-76.90087 0,-82.62532 3.305013,-5.724451 64.945601,-41.31266 71.555627,-41.31266 6.610025,0 68.250617,35.58821 71.555627,41.31266 3.30501,5.72445 3.30501,76.900871 0,82.625321 z"
       inkscape:randomized="0"
       inkscape:rounded="0.08"
       inkscape:flatsided="true"
       sodipodi:arg2="1.0471976"
       sodipodi:arg1="0.52359878"
       sodipodi:r2="65.4674"
       sodipodi:r1="82.62532"
       sodipodi:cy="57.452381"
       sodipodi:cx="51.404762"
       sodipodi:sides="6"
       id="path4526"
       style="opacity:0.65064105;fill:url(#linearGradient4528);fill-opacity:1.0;stroke:none;stroke-width:0;stroke-miterlimit:4;stroke-dasharray:none;stroke-opacity:1"
       sodipodi:type="star" />
    <path
       sodipodi:type="star"
       style="opacity:0.76;fill:url(#linearGradient4532);fill-opacity:1;stroke:none;stroke-width:0;stroke-miterlimit:4;stroke-dasharray:none;stroke-opacity:1"
       id="path4530"
       sodipodi:sides="6"
       sodipodi:cx="51.404762"
       sodipodi:cy="57.452381"
       sodipodi:r1="82.62532"
       sodipodi:r2="65.4674"
       sodipodi:arg1="0.52359878"
       sodipodi:arg2="1.0471976"
       inkscape:flatsided="true"
       inkscape:rounded="0.08"
       inkscape:randomized="0"
       d="m 122.96039,98.765042 c -3.30501,5.724448 -64.945602,41.312658 -71.555628,41.312658 -6.610026,0 -68.250614,-35.58821 -71.555626,-41.312659 -3.305013,-5.72445 -3.305013,-76.90087 0,-82.62532 3.305013,-5.724451 64.945601,-41.31266 71.555627,-41.31266 6.610025,0 68.250617,35.58821 71.555627,41.31266 3.30501,5.72445 3.30501,76.900871 0,82.625321 z"
       transform="matrix(-0.14976409,0.14763249,-0.14763249,-0.14976409,75.932755,47.221772)" />
    <path
       sodipodi:type="star"
       style="opacity:0.902;fill:url(#linearGradient4536);fill-opacity:1;stroke:none;stroke-width:0;stroke-miterlimit:4;stroke-dasharray:none;stroke-opacity:1"
       id="path4534"
       sodipodi:sides="6"
       sodipodi:cx="51.404762"
       sodipodi:cy="57.452381"
       sodipodi:r1="82.62532"
       sodipodi:r2="65.4674"
       sodipodi:arg1="0.52359878"
       sodipodi:arg2="1.0471976"
       inkscape:flatsided="true"
       inkscape:rounded="0.08"
       inkscape:randomized="0"
       d="m 122.96039,98.765042 c -3.30501,5.724448 -64.945602,41.312658 -71.555628,41.312658 -6.610026,0 -68.250614,-35.58821 -71.555626,-41.312659 -3.305013,-5.72445 -3.305013,-76.90087 0,-82.62532 3.305013,-5.724451 64.945601,-41.31266 71.555627,-41.31266 6.610025,0 68.250617,35.58821 71.555627,41.31266 3.30501,5.72445 3.30501,76.900871 0,82.625321 z"
       transform="matrix(-0.04685077,0.04618394,-0.04618394,-0.04685077,127.70529,100.3857)" />
    <path
       transform="matrix(-0.04685077,0.04618394,-0.04618394,-0.04685077,247.90172,114.7488)"
       d="m 122.96039,98.765042 c -3.30501,5.724448 -64.945602,41.312658 -71.555628,41.312658 -6.610026,0 -68.250614,-35.58821 -71.555626,-41.312659 -3.305013,-5.72445 -3.305013,-76.90087 0,-82.62532 3.305013,-5.724451 64.945601,-41.31266 71.555627,-41.31266 6.610025,0 68.250617,35.58821 71.555627,41.31266 3.30501,5.72445 3.30501,76.900871 0,82.625321 z"
       inkscape:randomized="0"
       inkscape:rounded="0.08"
       inkscape:flatsided="true"
       sodipodi:arg2="1.0471976"
       sodipodi:arg1="0.52359878"
       sodipodi:r2="65.4674"
       sodipodi:r1="82.62532"
       sodipodi:cy="57.452381"
       sodipodi:cx="51.404762"
       sodipodi:sides="6"
       id="path4538"
       style="opacity:0.858;fill:url(#linearGradient4540);fill-opacity:1;stroke:none;stroke-width:0;stroke-miterlimit:4;stroke-dasharray:none;stroke-opacity:1"
       sodipodi:type="star" />
  </g>
</svg>
