<?xml version="1.0" encoding="UTF-8" standalone="no"?>
<svg
   xmlns:dc="http://purl.org/dc/elements/1.1/"
   xmlns:cc="http://creativecommons.org/ns#"
   xmlns:rdf="http://www.w3.org/1999/02/22-rdf-syntax-ns#"
   xmlns:svg="http://www.w3.org/2000/svg"
   xmlns="http://www.w3.org/2000/svg"
   xmlns:xlink="http://www.w3.org/1999/xlink"
   xmlns:sodipodi="http://sodipodi.sourceforge.net/DTD/sodipodi-0.dtd"
   xmlns:inkscape="http://www.inkscape.org/namespaces/inkscape"
   width="1200"
   height="500"
   viewBox="0 0 317.50001 132.29166"
   version="1.1"
   id="svg8"
   inkscape:version="1.0.2-2 (e86c870879, 2021-01-15)"
   sodipodi:docname="Title.svg"
   inkscape:export-filename="C:\Users\ravin\Documents\WebTest\Pisces_Softwares\images\title.png"
   inkscape:export-xdpi="96"
   inkscape:export-ydpi="96">
  <defs
     id="defs2">
    <linearGradient
       inkscape:collect="always"
       id="linearGradient40">
      <stop
         style="stop-color:#000032;stop-opacity:1"
         offset="0"
         id="stop36" />
      <stop
         style="stop-color:#0000ad;stop-opacity:1"
         offset="1"
         id="stop38" />
    </linearGradient>
    <linearGradient
       inkscape:collect="always"
       xlink:href="#linearGradient40"
       id="linearGradient867"
       gradientUnits="userSpaceOnUse"
       x1="640.70312"
       y1="971.76044"
       x2="902.0072"
       y2="466.04617"
       gradientTransform="matrix(0.28279992,0,0,0.28279992,-20.775027,9.0023152)" />
    <filter
       inkscape:collect="always"
       style="color-interpolation-filters:sRGB"
       id="filter941"
       x="-0.059263762"
       width="1.1185275"
       y="-0.15150458"
       height="1.3030092">
      <feGaussianBlur
         inkscape:collect="always"
         stdDeviation="5.8512628"
         id="feGaussianBlur943" />
    </filter>
  </defs>
  <sodipodi:namedview
     id="base"
     pagecolor="#ffffff"
     bordercolor="#666666"
     borderopacity="1.0"
     inkscape:pageopacity="0"
     inkscape:pageshadow="2"
     inkscape:zoom="0.35"
     inkscape:cx="306.09275"
     inkscape:cy="406.58197"
     inkscape:document-units="mm"
     inkscape:current-layer="layer1"
     showgrid="false"
     units="px"
     inkscape:pagecheckerboard="false"
     showguides="true"
     inkscape:guide-bbox="true"
     inkscape:window-width="1920"
     inkscape:window-height="1001"
     inkscape:window-x="-9"
     inkscape:window-y="-9"
     inkscape:window-maximized="1"
     inkscape:document-rotation="0" />
  <metadata
     id="metadata5">
    <rdf:RDF>
      <cc:Work
         rdf:about="">
        <dc:format>image/svg+xml</dc:format>
        <dc:type
           rdf:resource="http://purl.org/dc/dcmitype/StillImage" />
        <dc:title />
      </cc:Work>
    </rdf:RDF>
  </metadata>
  <g
     inkscape:label="Layer 1"
     inkscape:groupmode="layer"
     id="layer1"
     transform="translate(0,-164.70835)">
    <flowRoot
       xml:space="preserve"
       id="flowRoot40"
       style="font-style:normal;font-variant:normal;font-weight:normal;font-stretch:normal;font-size:40px;line-height:1.25;font-family:'Script MT Bold';-inkscape-font-specification:'Script MT Bold, ';letter-spacing:0px;word-spacing:0px;fill:#000000;fill-opacity:1;stroke:none"><flowRegion
         id="flowRegion42"
         style="font-style:normal;font-variant:normal;font-weight:normal;font-stretch:normal;font-family:'Script MT Bold';-inkscape-font-specification:'Script MT Bold, '"><rect
           id="rect44"
           width="884.89362"
           height="410.12195"
           x="319.20819"
           y="293.92889"
           style="font-style:normal;font-variant:normal;font-weight:normal;font-stretch:normal;font-family:'Script MT Bold';-inkscape-font-specification:'Script MT Bold, '" /></flowRegion><flowPara
         id="flowPara46" /></flowRoot>
    <flowRoot
       xml:space="preserve"
       id="flowRoot86"
       style="font-style:normal;font-weight:normal;font-size:40px;line-height:1.25;font-family:sans-serif;letter-spacing:0px;word-spacing:0px;fill:#000000;fill-opacity:1;stroke:none"><flowRegion
         id="flowRegion88"><rect
           id="rect90"
           width="397.14285"
           height="271.42856"
           x="40"
           y="760" /></flowRegion><flowPara
         id="flowPara92" /></flowRoot>
    <path
       style="font-style:normal;font-weight:normal;font-size:12.83039188px;line-height:1.25;font-family:sans-serif;letter-spacing:0px;word-spacing:0px;opacity:0.578;fill:#ffffff;fill-opacity:1;stroke:none;stroke-width:0.3207598;filter:url(#filter941)"
       d="m 39.008303,184.3496 v 0.94 c 2.673001,0 4.4269,0.54293 5.262213,1.62884 0.835311,1.04414 1.253154,3.19512 1.253152,6.45284 v 76.43099 c 2e-6,3.96773 -2.17174,5.95157 -6.515365,5.95157 v 0.87695 h 24.370091 v -0.87695 c -2.798297,0 -4.698572,-0.41784 -5.700946,-1.25315 -1.002373,-0.87708 -1.503783,-3.54971 -1.503783,-8.01863 v -78.99983 h 6.57841 c 6.598965,0 11.506147,0.91873 14.722099,2.75642 3.215952,1.83769 5.701202,4.5316 7.455357,8.08168 1.795921,3.50831 2.693893,7.5388 2.693893,12.09125 0,5.84718 -1.837468,10.56647 -5.51284,14.15831 -3.63361,3.59184 -8.374171,5.38778 -14.221354,5.38778 v 0.87747 c 9.230198,0.16706 16.539062,-1.71245 21.926825,-5.63842 5.387765,-3.92596 8.081675,-9.79444 8.081675,-17.60461 0,-5.0954 -0.98154,-9.18818 -2.94452,-12.27884 -1.921219,-3.13241 -5.011695,-5.74276 -9.271786,-7.83104 -4.218326,-2.08828 -11.005536,-3.13263 -20.361031,-3.13263 z m 223.811667,29.70155 c -7.1316,0 -13.46817,1.94493 -19.01022,5.8353 -5.54204,3.85367 -8.31318,8.27652 -8.31318,13.26793 0,3.59675 2.85664,8.07433 8.57053,13.43277 l 5.86425,5.50509 c 4.85465,4.51429 7.28223,8.07416 7.28223,10.67997 0,2.3489 -1.22433,4.33102 -3.67315,5.94589 -2.4488,1.57817 -5.45638,2.3673 -9.02219,2.3673 -5.31808,0 -10.54532,-1.4708 -15.68276,-4.40232 0.0179,-0.0159 0.0353,-0.0306 0.0532,-0.0465 a 6.1471992,3.5413209 32.934931 0 1 -0.50694,-0.30489 6.1471992,3.5413209 32.934931 0 1 -2.94143,-2.9807 c -1.02395,0.82853 -1.92727,1.48689 -2.68665,1.94252 -2.24553,1.30989 -4.6034,1.96526 -7.07348,1.96526 -6.32488,0 -10.23558,-3.6492 -11.73261,-10.94714 16.46714,-4.82787 24.70081,-11.11538 24.70081,-18.86242 0,-2.91917 -1.04817,-5.27705 -3.14399,-7.07346 -2.09582,-1.79642 -4.88379,-2.69441 -8.36435,-2.69441 -6.69913,0 -12.79968,3.21858 -18.3012,9.65574 -5.00345,5.82034 -7.73103,12.27518 -8.184,19.36471 -3.29651,3.44952 -6.25881,6.03778 -8.88163,7.74991 -2.6572,1.72157 -5.50188,2.58227 -8.53333,2.58227 -3.5554,0 -6.39957,-1.3286 -8.53281,-3.9858 -2.13324,-2.6572 -3.1998,-6.2124 -3.1998,-10.66602 0,-5.16469 1.12276,-9.76808 3.36827,-13.81001 2.28295,-4.04194 4.79048,-6.06319 7.52253,-6.06319 1.16019,0 2.07708,0.50518 2.75074,1.51567 0.71108,1.01048 1.0666,2.33909 1.0666,3.9858 0,0.37425 -0.11238,1.40353 -0.33693,3.08767 -0.22455,1.64671 -0.33693,2.6198 -0.33693,2.9192 0,0.74851 0.26204,1.12293 0.786,1.12293 0.37425,0 0.95453,-0.18695 1.74046,-0.56121 l 6.51175,-3.08767 c 1.08533,-0.52396 1.81527,-1.04804 2.18953,-1.57199 0.41167,-0.52395 0.61753,-1.31011 0.61753,-2.358 0,-2.9566 -1.04765,-5.35177 -3.14347,-7.1856 -2.09581,-1.87127 -4.80923,-2.80655 -8.14008,-2.80655 v 5.3e-4 c -6.77398,0 -13.08039,3.38664 -18.91874,10.16062 -5.80092,6.73655 -8.70127,14.09062 -8.70127,22.06222 0,4.86528 1.57174,8.8884 4.71547,12.06954 3.18115,3.14374 7.20426,4.71599 12.06955,4.71599 4.34134,0 8.49572,-1.10435 12.4628,-3.31246 4.00451,-2.20808 8.40203,-5.66983 13.19248,-10.38541 v -0.003 c 0.60843,3.49038 2.04691,6.43101 4.32273,8.81651 3.14373,3.256 7.26031,4.88394 12.35015,4.88394 4.39377,0 8.4222,-1.02584 12.08815,-3.07061 6.30583,2.01673 12.09312,3.02824 17.35863,3.02824 7.77606,0 14.71421,-1.92635 20.81476,-5.78001 6.10053,-3.85367 9.15086,-8.23984 9.15086,-13.15786 0,-3.56005 -2.87827,-8.11097 -8.63513,-13.65291 l -5.28445,-5.00951 c -4.98354,-4.80793 -7.4755,-8.66165 -7.4755,-11.56107 0,-5.72545 4.18864,-8.5881 12.56617,-8.5881 7.4753,0 11.21325,2.47687 11.21325,7.43158 0,0.44042 -0.0433,0.8262 -0.1292,1.15652 l -0.19325,0.93586 h 4.06022 l 2.83549,-12.1667 c -4.85468,-1.39466 -9.23698,-2.09186 -13.14649,-2.09186 z m -153.8733,1.51309 a 5.2528633,5.2528633 0 0 0 -5.25291,5.2529 5.2528633,5.2528633 0 0 0 5.25291,5.25292 5.2528633,5.2528633 0 0 0 5.25291,-5.25292 5.2528633,5.2528633 0 0 0 -5.25291,-5.2529 z m 31.21463,11.92175 c -4.76572,0 -9.00066,1.52142 -12.70413,4.56458 -3.70349,3.01447 -5.55522,6.47426 -5.55522,10.37869 0,2.8135 1.90951,6.31584 5.72782,10.50737 l 3.91862,4.3062 c 3.24413,3.53123 4.86637,6.31619 4.86637,8.35453 0,1.83739 -0.81821,3.38768 -2.45463,4.65087 -1.63642,1.23451 -3.64623,1.85157 -6.02909,1.85157 -3.76791,0 -7.46786,-1.29233 -11.1001,-3.87004 a 3.1404168,2.4789585 42.895026 0 1 -0.94619,-1.39682 c -3.8569,3.69962 -6.87585,5.55625 -9.05113,5.55625 -1.69383,0 -2.54093,-0.9327 -2.54093,-2.79879 0,-0.9187 0.33033,-3.04352 0.99064,-6.37378 l 4.21989,-21.27312 3.27319,-13.78055 -9.87381,3.23081 -2.5921,13.66893 c -0.16312,0.97512 -0.35481,2.05116 -0.58239,3.25407 l -0.79013,3.98528 -1.28416,6.7722 c -0.0215,0.11318 -0.0649,0.21583 -0.11989,0.30954 l -0.77721,3.91914 c -0.6603,3.35897 -0.99064,5.77055 -0.99064,7.2347 0,4.33508 2.06707,6.50245 6.20117,6.50245 2.79675,0 5.79766,-1.06636 8.99997,-3.18379 4.35746,1.6708 8.34708,2.50683 11.96826,2.50683 5.19635,0 9.83306,-1.50723 13.90975,-4.52169 4.0767,-3.01445 6.11487,-6.44486 6.11487,-10.29188 0,-2.78479 -1.92316,-6.3449 -5.77019,-10.67997 l -3.53157,-3.91862 c -3.33026,-3.7609 -4.99504,-6.77535 -4.99504,-9.04338 0,-4.47862 2.79914,-6.71793 8.39742,-6.71793 4.99539,0 7.49308,1.93787 7.49308,5.8136 0,0.3445 -0.0289,0.64597 -0.0863,0.90433 l -0.12919,0.73174 h 2.71301 l 1.89498,-9.51673 c -3.24413,-1.09096 -6.17247,-1.63659 -8.785,-1.63659 z m 73.77896,4.68705 c 2.61977,0 3.92948,1.79599 3.92948,5.38882 0,7.26051 -4.79034,12.2383 -14.37122,14.93294 0,-6.02549 1.12275,-10.9093 3.36827,-14.65182 2.24552,-3.77996 4.6034,-5.66994 7.07347,-5.66994 z"
       id="text96"
       inkscape:connector-curvature="0"
       transform="matrix(1.0688501,0,0,1.0688501,-5.4230284,-7.8702605)" />
    <path
       inkscape:connector-curvature="0"
       id="path865"
       d="m 35.983799,182.56807 v 1.00472 c 2.857036,0 4.731693,0.58032 5.624514,1.74099 0.892821,1.11603 1.33944,3.4151 1.33944,6.89712 v 81.69327 c 0,4.24091 -2.321265,6.36133 -6.963954,6.36133 v 0.93733 h 26.047973 v -0.93733 c -2.990963,0 -5.022067,-0.44661 -6.09345,-1.33943 -1.071394,-0.93746 -1.607326,-3.7941 -1.607326,-8.57071 v -84.43898 h 7.031334 c 7.05331,0 12.29835,0.98199 15.735718,2.9462 3.437369,1.96422 6.093728,4.8436 7.968662,8.63811 1.91957,3.74986 2.879365,8.05784 2.879365,12.92373 0,6.24976 -1.96398,11.29397 -5.8924,15.13311 -3.883784,3.83914 -8.950732,5.75873 -15.200491,5.75873 v 0.93789 c 9.8657,0.17856 17.677776,-1.83036 23.436484,-6.02663 5.758716,-4.19626 8.638091,-10.46879 8.638091,-18.81669 0,-5.44622 -1.049114,-9.82079 -3.147235,-13.12423 -2.053498,-3.34809 -5.356758,-6.13816 -9.910156,-8.37022 -4.508752,-2.23205 -11.763262,-3.34831 -21.762889,-3.34831 z M 275.2049,214.31458 c -7.62262,0 -14.39546,2.07883 -20.31908,6.23706 -5.92362,4.11899 -8.88554,8.84636 -8.88554,14.18143 0,3.84438 3.05332,8.63024 9.16061,14.35761 l 6.268,5.88412 c 5.1889,4.8251 7.78362,8.63007 7.78362,11.41529 0,2.51062 -1.30863,4.62921 -3.92606,6.35526 -2.61739,1.68683 -5.83204,2.53029 -9.64336,2.53029 -5.68423,0 -11.27136,-1.57206 -16.76253,-4.70542 0.0191,-0.017 0.0377,-0.0327 0.0569,-0.0497 a 6.5704345,3.7851412 32.934931 0 1 -0.54186,-0.32588 6.5704345,3.7851412 32.934931 0 1 -3.14393,-3.18592 c -1.09445,0.88557 -2.05997,1.58926 -2.87164,2.07626 -2.40013,1.40007 -4.92035,2.10057 -7.56048,2.10057 -6.76035,0 -10.9403,-3.90045 -12.5404,-11.70086 17.6009,-5.16026 26.40146,-11.88067 26.40146,-20.16108 0,-3.12017 -1.12034,-5.64039 -3.36045,-7.56048 -2.24012,-1.92011 -5.22004,-2.87992 -8.94024,-2.87992 -7.16036,0 -13.68094,3.44018 -19.56125,10.32053 -5.34794,6.22108 -8.2633,13.12033 -8.74746,20.69798 -3.52347,3.68702 -6.68973,6.45348 -9.49313,8.28349 -2.84015,1.8401 -5.88068,2.76006 -9.12085,2.76006 -3.80019,0 -6.84018,-1.42008 -9.12029,-4.26022 -2.28012,-2.84015 -3.42012,-6.64013 -3.42012,-11.40038 0,-5.52027 1.20006,-10.4406 3.60017,-14.76083 2.44014,-4.32022 5.12032,-6.48064 8.04047,-6.48064 1.24007,0 2.22009,0.53996 2.94013,1.62002 0.76004,1.08005 1.14004,2.50014 1.14004,4.26022 0,0.40002 -0.12012,1.50017 -0.36013,3.30026 -0.24001,1.76009 -0.36013,2.80017 -0.36013,3.12019 0,0.80004 0.28008,1.20024 0.84012,1.20024 0.40001,0 1.02025,-0.19982 1.86029,-0.59985 l 6.96008,-3.30025 c 1.16006,-0.56003 1.94025,-1.1202 2.34028,-1.68023 0.44002,-0.56002 0.66005,-1.40031 0.66005,-2.52034 0,-3.16017 -1.11979,-5.72024 -3.35991,-7.68033 -2.24011,-2.00011 -5.14034,-2.99978 -8.70051,-2.99978 v 5.6e-4 c -7.24037,0 -13.98098,3.61981 -20.2213,10.86018 -6.20032,7.20036 -9.30037,15.06076 -9.30037,23.58121 0,5.20025 1.67997,9.50036 5.04015,12.90053 3.40017,3.36018 7.70026,5.04068 12.90052,5.04068 4.64025,0 9.08067,-1.18038 13.32088,-3.54052 4.28022,-2.36011 8.98051,-6.0602 14.10077,-11.10045 v -0.003 c 0.65032,3.7307 2.18785,6.87378 4.62036,9.42352 3.36018,3.48018 7.76019,5.2202 13.20046,5.2202 4.69628,0 9.00206,-1.09647 12.92042,-3.28202 6.73999,2.15558 12.92573,3.23674 18.55378,3.23674 8.31144,0 15.72728,-2.05898 22.24786,-6.17797 6.52054,-4.11899 9.78088,-8.80715 9.78088,-14.06377 0,-3.80517 -3.07644,-8.66942 -9.22965,-14.59292 l -5.64828,-5.35442 c -5.32666,-5.13895 -7.99019,-9.258 -7.99019,-12.35705 0,-6.11965 4.47702,-9.17939 13.43134,-9.17939 7.98998,0 11.9853,2.6474 11.9853,7.94325 0,0.47074 -0.0463,0.88308 -0.1381,1.23614 l -0.20656,1.0003 h 4.33977 l 3.0307,-13.00438 c -5.18892,-1.49068 -9.87293,-2.23589 -14.05161,-2.23589 z m -164.46749,1.61726 a 5.6145235,5.6145235 0 0 0 -5.61458,5.61458 5.6145235,5.6145235 0 0 0 5.61458,5.61457 5.6145235,5.6145235 0 0 0 5.61457,-5.61457 5.6145235,5.6145235 0 0 0 -5.61457,-5.61458 z m 33.36376,12.74257 c -5.09384,0 -9.62037,1.62617 -13.57881,4.87885 -3.95849,3.22201 -5.9377,6.92001 -5.9377,11.09326 0,3.00721 2.04097,6.75069 6.12217,11.23081 l 4.18843,4.60268 c 3.46749,3.77435 5.20142,6.75106 5.20142,8.92974 0,1.96389 -0.87455,3.62092 -2.62363,4.97109 -1.74909,1.3195 -3.89728,1.97904 -6.4442,1.97904 -4.02733,0 -7.98202,-1.38131 -11.86434,-4.13649 a 3.3566348,2.649635 42.895026 0 1 -1.01133,-1.49299 c -4.12245,3.95434 -7.34926,5.9388 -9.67431,5.9388 -1.81045,0 -2.71587,-0.99691 -2.71587,-2.99149 0,-0.98194 0.35307,-3.25307 1.05885,-6.81262 l 4.51043,-22.73776 3.49855,-14.72935 -10.55364,3.45325 -2.77055,14.61003 c -0.17436,1.04226 -0.37924,2.19239 -0.62249,3.47812 l -0.84453,4.25967 -1.372561,7.23846 c -0.023,0.12097 -0.0694,0.23069 -0.12815,0.33085 l -0.830724,4.18898 c -0.705757,3.59023 -1.058824,6.16785 -1.058824,7.73281 0,4.63356 2.209368,6.95014 6.628089,6.95014 2.98931,0 6.19683,-1.13978 9.61962,-3.40299 4.65747,1.78583 8.92177,2.67942 12.79228,2.67942 5.55412,0 10.51005,-1.611 14.86743,-4.83301 4.35738,-3.22199 6.53589,-6.88859 6.53589,-11.00047 0,-2.97653 -2.05557,-6.78175 -6.16748,-11.41528 l -3.77471,-4.18843 c -3.55955,-4.01984 -5.33896,-7.24183 -5.33896,-9.66602 0,-4.78697 2.99186,-7.18046 8.97558,-7.18046 5.33933,0 8.00899,2.0713 8.00899,6.21387 0,0.36822 -0.0309,0.69045 -0.0922,0.96659 l -0.13808,0.78212 h 2.8998 l 2.02544,-10.17195 c -3.46749,-1.16608 -6.59744,-1.74927 -9.38984,-1.74927 z m 78.85865,5.00975 c 2.80014,0 4.20001,1.91964 4.20001,5.75984 0,7.7604 -5.12014,13.08091 -15.36067,15.96108 0,-6.44035 1.20005,-11.66041 3.60018,-15.6606 2.40012,-4.04021 4.92034,-6.06032 7.56048,-6.06032 z"
       style="font-style:normal;font-weight:normal;font-size:12.83039188px;line-height:1.25;font-family:sans-serif;letter-spacing:0px;word-spacing:0px;fill:url(#linearGradient867);fill-opacity:1;stroke:none;stroke-width:0.34284416" />
  </g>
</svg>
