<?xml version="1.0" encoding="UTF-8" standalone="no"?>
<svg
   xmlns:dc="http://purl.org/dc/elements/1.1/"
   xmlns:cc="http://creativecommons.org/ns#"
   xmlns:rdf="http://www.w3.org/1999/02/22-rdf-syntax-ns#"
   xmlns:svg="http://www.w3.org/2000/svg"
   xmlns="http://www.w3.org/2000/svg"
   xmlns:sodipodi="http://sodipodi.sourceforge.net/DTD/sodipodi-0.dtd"
   xmlns:inkscape="http://www.inkscape.org/namespaces/inkscape"
   width="390"
   height="47"
   viewBox="0 0 103.1875 12.435417"
   version="1.1"
   id="svg8"
   inkscape:version="0.92.2 (5c3e80d, 2017-08-06)"
   sodipodi:docname="Wave.svg">
  <defs
     id="defs2">
    <filter
       inkscape:collect="always"
       style="color-interpolation-filters:sRGB"
       id="filter946"
       x="-0.02504515"
       width="1.0500903"
       y="-0.19542109"
       height="1.3908422">
      <feGaussianBlur
         inkscape:collect="always"
         stdDeviation="1.1434055"
         id="feGaussianBlur948" />
    </filter>
  </defs>
  <sodipodi:namedview
     id="base"
     pagecolor="#ffffff"
     bordercolor="#666666"
     borderopacity="1.0"
     inkscape:pageopacity="0"
     inkscape:pageshadow="2"
     inkscape:zoom="0.7"
     inkscape:cx="446.01924"
     inkscape:cy="-35.133495"
     inkscape:document-units="px"
     inkscape:current-layer="layer1"
     inkscape:document-rotation="0"
     showgrid="false"
     units="px"
     width="1920px"
     inkscape:pagecheckerboard="false"
     inkscape:window-width="686"
     inkscape:window-height="435"
     inkscape:window-x="586"
     inkscape:window-y="0"
     inkscape:window-maximized="0"
     inkscape:showpageshadow="true"
     borderlayer="false"
     showborder="true" />
  <metadata
     id="metadata5">
    <rdf:RDF>
      <cc:Work
         rdf:about="">
        <dc:format>image/svg+xml</dc:format>
        <dc:type
           rdf:resource="http://purl.org/dc/dcmitype/StillImage" />
        <dc:title></dc:title>
      </cc:Work>
    </rdf:RDF>
  </metadata>
  <g
     inkscape:label="Layer 1"
     inkscape:groupmode="layer"
     id="layer1">
    <path
       style="opacity:0.73000004;fill:#000000;fill-opacity:1;stroke:none;stroke-width:0.32905999;stroke-miterlimit:4;stroke-dasharray:none;stroke-opacity:1;filter:url(#filter946)"
       d="m -3.1344755,2.6544482 c 0.096907,0.09165 6.481809,1.7982561 9.8284181,2.6270065 C 17.864798,8.0477932 25.16444,9.0098396 33.667622,8.8364119 39.795338,8.7114339 43.997199,8.2356092 52.728107,6.6779761 54.961003,6.2796184 57.71686,5.8032594 58.852232,5.6194027 75.019967,3.0012762 89.245466,3.0662282 104.5938,5.8282544 l 1.56529,0.281684 -0.10051,5.2275426 c -0.0553,2.87515 -0.12136,5.249148 -0.14677,5.27555 -0.0254,0.0264 -24.532012,0.0031 -54.459095,-0.05174 l -54.4128818,-0.09975 -0.1656993,-5.160013 c -0.09114,-2.8380061 -0.2042767,-5.9568063 -0.2514222,-6.9306677 -0.077443,-1.6002341 -0.025128,-1.9699678 0.242854,-1.7164121 z"
       id="path2752"
       inkscape:connector-curvature="0" />
    <path
       inkscape:connector-curvature="0"
       id="path884"
       d="m -2.960208,2.7032032 c 0.096907,0.09165 6.481809,1.7982561 9.8284181,2.6270065 C 18.039065,8.0965482 25.338707,9.0585946 33.84189,8.8851669 39.969606,8.7601889 44.171467,8.2843642 52.902375,6.7267311 55.135271,6.3283731 57.891128,5.8520144 59.026499,5.6681577 75.194235,3.0500312 89.419733,3.1149832 104.76807,5.8770094 l 1.56529,0.281684 -0.10051,5.2275426 c -0.0553,2.87515 -0.12136,5.249148 -0.14677,5.27555 -0.0254,0.0264 -24.532015,0.0031 -54.459097,-0.05174 l -54.4128823,-0.09975 -0.1656993,-5.160013 c -0.09114,-2.8380061 -0.2042767,-5.9568063 -0.2514222,-6.9306677 -0.077443,-1.6002341 -0.025128,-1.9699678 0.242854,-1.7164121 z"
       style="opacity:1;fill:#ffffff;fill-opacity:1;stroke:none;stroke-width:0.32905999;stroke-miterlimit:4;stroke-dasharray:none;stroke-opacity:1" />
  </g>
</svg>
